<?xml version="1.0" encoding="UTF-8"?> <svg xmlns="http://www.w3.org/2000/svg" width="800" height="200" viewBox="0 0 800 200" fill="none"><path d="M309 119.995L471.937 102.712L341.492 120.737" stroke="#9378FF" stroke-width="10"></path><path d="M216.744 87.9844H211.144C211.042 87.2599 210.833 86.6165 210.518 86.054C210.202 85.483 209.798 84.9972 209.303 84.5966C208.809 84.196 208.238 83.8892 207.59 83.6761C206.951 83.4631 206.256 83.3565 205.506 83.3565C204.151 83.3565 202.971 83.6932 201.965 84.3665C200.96 85.0312 200.18 86.0028 199.626 87.2812C199.072 88.5511 198.795 90.0937 198.795 91.9091C198.795 93.7756 199.072 95.3437 199.626 96.6136C200.188 97.8835 200.972 98.8423 201.978 99.4901C202.984 100.138 204.147 100.462 205.468 100.462C206.21 100.462 206.896 100.364 207.526 100.168C208.165 99.9716 208.732 99.6861 209.227 99.3111C209.721 98.9276 210.13 98.4631 210.454 97.9176C210.786 97.3722 211.016 96.75 211.144 96.0511L216.744 96.0767C216.599 97.2784 216.237 98.4375 215.657 99.554C215.086 100.662 214.315 101.655 213.343 102.533C212.38 103.402 211.229 104.092 209.891 104.604C208.562 105.107 207.058 105.358 205.379 105.358C203.043 105.358 200.955 104.83 199.114 103.773C197.282 102.716 195.833 101.186 194.768 99.1832C193.711 97.1804 193.183 94.7557 193.183 91.9091C193.183 89.054 193.719 86.625 194.793 84.6222C195.867 82.6193 197.325 81.0937 199.165 80.0455C201.006 78.9886 203.077 78.4602 205.379 78.4602C206.896 78.4602 208.302 78.6733 209.597 79.0994C210.901 79.5256 212.056 80.1477 213.062 80.9659C214.067 81.7756 214.886 82.7685 215.516 83.9446C216.156 85.1207 216.565 86.4673 216.744 87.9844ZM226.21 105.371C224.957 105.371 223.841 105.153 222.861 104.719C221.881 104.276 221.105 103.624 220.534 102.763C219.972 101.893 219.69 100.811 219.69 99.5156C219.69 98.4247 219.891 97.5085 220.291 96.767C220.692 96.0256 221.237 95.429 221.928 94.9773C222.618 94.5256 223.402 94.1847 224.28 93.9545C225.166 93.7244 226.095 93.5625 227.067 93.4688C228.209 93.3494 229.129 93.2386 229.828 93.1364C230.527 93.0256 231.034 92.8636 231.349 92.6506C231.665 92.4375 231.822 92.1222 231.822 91.7045V91.6278C231.822 90.8182 231.567 90.1918 231.055 89.7486C230.553 89.3054 229.837 89.0838 228.908 89.0838C227.928 89.0838 227.148 89.3011 226.568 89.7358C225.989 90.1619 225.605 90.6989 225.418 91.3466L220.381 90.9375C220.636 89.7443 221.139 88.7131 221.889 87.8438C222.639 86.9659 223.607 86.2926 224.791 85.8239C225.984 85.3466 227.365 85.108 228.933 85.108C230.024 85.108 231.068 85.2358 232.065 85.4915C233.071 85.7472 233.962 86.1435 234.737 86.6804C235.521 87.2173 236.139 87.9077 236.591 88.7514C237.043 89.5866 237.268 90.5881 237.268 91.7557V105H232.104V102.277H231.95C231.635 102.891 231.213 103.432 230.685 103.901C230.156 104.361 229.521 104.723 228.78 104.987C228.038 105.243 227.182 105.371 226.21 105.371ZM227.77 101.612C228.571 101.612 229.278 101.455 229.892 101.139C230.506 100.815 230.987 100.381 231.337 99.8352C231.686 99.2898 231.861 98.6719 231.861 97.9815V95.8977C231.69 96.0085 231.456 96.1108 231.158 96.2045C230.868 96.2898 230.54 96.3707 230.173 96.4474C229.807 96.5156 229.44 96.5795 229.074 96.6392C228.707 96.6903 228.375 96.7372 228.077 96.7798C227.438 96.8736 226.879 97.0227 226.402 97.2273C225.925 97.4318 225.554 97.7088 225.29 98.0582C225.026 98.3991 224.893 98.8253 224.893 99.3366C224.893 100.078 225.162 100.645 225.699 101.037C226.244 101.42 226.935 101.612 227.77 101.612ZM253.102 98.9787L258.42 85.3636H262.562L254.904 105H251.286L243.808 85.3636H247.937L253.102 98.9787ZM246.697 85.3636V105H241.494V85.3636H246.697ZM259.775 105V85.3636H264.914V105H259.775ZM272.54 91.3977H278.408C281.007 91.3977 283.036 92.0199 284.493 93.2642C285.95 94.5 286.679 96.1534 286.679 98.2244C286.679 99.571 286.351 100.756 285.695 101.778C285.038 102.793 284.092 103.585 282.857 104.156C281.621 104.719 280.138 105 278.408 105H269.126V85.3636H274.33V100.717H278.408C279.32 100.717 280.07 100.487 280.658 100.027C281.246 99.5668 281.544 98.9787 281.553 98.2628C281.544 97.5043 281.246 96.8864 280.658 96.4091C280.07 95.9233 279.32 95.6804 278.408 95.6804H272.54V91.3977ZM288.788 105V85.3636H294.234V105H288.788ZM303.79 97.8153L310.86 85.3636H316.229V105H311.039V92.5099L303.995 105H298.587V85.3636H303.79V97.8153ZM309.927 78.5114H313.724C313.715 80.0625 313.14 81.3111 311.998 82.2571C310.864 83.2031 309.33 83.6761 307.396 83.6761C305.452 83.6761 303.914 83.2031 302.781 82.2571C301.647 81.3111 301.08 80.0625 301.08 78.5114H304.852C304.843 79.0994 305.031 79.6278 305.414 80.0966C305.806 80.5653 306.467 80.7997 307.396 80.7997C308.299 80.7997 308.947 80.5696 309.339 80.1094C309.731 79.6491 309.927 79.1165 309.927 78.5114ZM487.904 105V85.3636H505.073V105H499.87V89.6463H493.043V105H487.904ZM512.078 112.364C511.388 112.364 510.74 112.308 510.135 112.197C509.539 112.095 509.044 111.963 508.652 111.801L509.88 107.736C510.519 107.932 511.094 108.038 511.605 108.055C512.125 108.072 512.573 107.953 512.948 107.697C513.331 107.442 513.642 107.007 513.881 106.393L514.201 105.562L507.157 85.3636H512.884L516.949 99.7841H517.154L521.257 85.3636H527.023L519.391 107.122C519.025 108.179 518.526 109.099 517.895 109.884C517.273 110.676 516.485 111.286 515.53 111.712C514.576 112.146 513.425 112.364 512.078 112.364ZM528.787 89.6463V85.3636H546.583V89.6463H540.255V105H535.064V89.6463H528.787ZM553.298 91.3977H559.165C561.765 91.3977 563.793 92.0199 565.251 93.2642C566.708 94.5 567.437 96.1534 567.437 98.2244C567.437 99.571 567.109 100.756 566.452 101.778C565.796 102.793 564.85 103.585 563.614 104.156C562.379 104.719 560.896 105 559.165 105H549.884V85.3636H555.087V100.717H559.165C560.077 100.717 560.827 100.487 561.415 100.027C562.004 99.5668 562.302 98.9787 562.31 98.2628C562.302 97.5043 562.004 96.8864 561.415 96.4091C560.827 95.9233 560.077 95.6804 559.165 95.6804H553.298V91.3977ZM579.38 105V85.3636H584.826V92.983H586.36L591.704 85.3636H598.096L591.154 95.1051L598.173 105H591.704L586.859 98.0327H584.826V105H579.38ZM150.898 133.429C150.284 133.429 149.738 133.548 149.261 133.787C148.784 134.026 148.409 134.358 148.136 134.784C147.872 135.202 147.74 135.696 147.74 136.267H142.844C142.844 135.202 143.048 134.23 143.457 133.352C143.866 132.466 144.437 131.703 145.17 131.064C145.903 130.416 146.756 129.918 147.727 129.568C148.707 129.219 149.764 129.044 150.898 129.044C152.875 129.044 154.537 129.487 155.883 130.374C157.238 131.251 158.261 132.44 158.952 133.94C159.65 135.432 160 137.107 160 138.964V139.438C160 141.304 159.655 142.987 158.964 144.487C158.274 145.987 157.251 147.176 155.896 148.054C154.55 148.923 152.883 149.358 150.898 149.358C149.312 149.358 147.915 149.047 146.704 148.425C145.494 147.794 144.548 146.903 143.866 145.753C143.184 144.594 142.844 143.217 142.844 141.624H147.74C147.74 142.229 147.868 142.783 148.123 143.286C148.379 143.788 148.741 144.189 149.21 144.487C149.687 144.786 150.25 144.939 150.898 144.947C151.912 144.939 152.7 144.653 153.263 144.091C153.834 143.528 154.23 142.825 154.452 141.982C154.682 141.129 154.797 140.281 154.797 139.438V138.964C154.797 138.036 154.677 137.149 154.439 136.305C154.209 135.462 153.808 134.771 153.237 134.234C152.675 133.697 151.895 133.429 150.898 133.429ZM156.369 137.571V140.793H149.427V137.571H156.369ZM172.966 155.673V122.818H178.399V155.673H172.966ZM172.966 149.384C171.458 149.384 170.081 149.141 168.837 148.655C167.593 148.161 166.519 147.466 165.615 146.571C164.712 145.668 164.013 144.598 163.519 143.362C163.024 142.118 162.777 140.75 162.777 139.259C162.777 137.75 163.024 136.378 163.519 135.142C164.013 133.898 164.712 132.828 165.615 131.933C166.519 131.03 167.593 130.335 168.837 129.849C170.081 129.355 171.458 129.108 172.966 129.108H173.976V149.384H172.966ZM172.966 145.139H173.567V133.352H172.966C172.233 133.352 171.581 133.506 171.01 133.812C170.439 134.119 169.958 134.541 169.566 135.078C169.173 135.607 168.875 136.229 168.671 136.945C168.475 137.661 168.377 138.432 168.377 139.259C168.377 140.349 168.556 141.342 168.914 142.237C169.271 143.124 169.796 143.831 170.486 144.359C171.176 144.879 172.003 145.139 172.966 145.139ZM178.399 149.384H177.389V129.108H178.399C179.908 129.108 181.284 129.355 182.529 129.849C183.773 130.335 184.847 131.03 185.75 131.933C186.654 132.828 187.352 133.898 187.847 135.142C188.341 136.378 188.588 137.75 188.588 139.259C188.588 140.75 188.341 142.118 187.847 143.362C187.352 144.598 186.654 145.668 185.75 146.571C184.847 147.466 183.773 148.161 182.529 148.655C181.284 149.141 179.908 149.384 178.399 149.384ZM178.399 145.139C179.132 145.139 179.784 144.99 180.355 144.692C180.926 144.385 181.408 143.963 181.8 143.426C182.192 142.889 182.49 142.267 182.695 141.56C182.899 140.844 183.002 140.077 183.002 139.259C183.002 138.159 182.818 137.166 182.452 136.28C182.094 135.385 181.574 134.673 180.892 134.145C180.21 133.616 179.379 133.352 178.399 133.352H177.798V145.139H178.399ZM201.548 155.673V122.818H206.981V155.673H201.548ZM201.548 149.384C200.04 149.384 198.663 149.141 197.419 148.655C196.175 148.161 195.101 147.466 194.197 146.571C193.294 145.668 192.595 144.598 192.101 143.362C191.606 142.118 191.359 140.75 191.359 139.259C191.359 137.75 191.606 136.378 192.101 135.142C192.595 133.898 193.294 132.828 194.197 131.933C195.101 131.03 196.175 130.335 197.419 129.849C198.663 129.355 200.04 129.108 201.548 129.108H202.558V149.384H201.548ZM201.548 145.139H202.149V133.352H201.548C200.815 133.352 200.163 133.506 199.592 133.812C199.021 134.119 198.54 134.541 198.148 135.078C197.756 135.607 197.457 136.229 197.253 136.945C197.057 137.661 196.959 138.432 196.959 139.259C196.959 140.349 197.138 141.342 197.496 142.237C197.854 143.124 198.378 143.831 199.068 144.359C199.758 144.879 200.585 145.139 201.548 145.139ZM206.981 149.384H205.971V129.108H206.981C208.49 129.108 209.866 129.355 211.111 129.849C212.355 130.335 213.429 131.03 214.332 131.933C215.236 132.828 215.934 133.898 216.429 135.142C216.923 136.378 217.17 137.75 217.17 139.259C217.17 140.75 216.923 142.118 216.429 143.362C215.934 144.598 215.236 145.668 214.332 146.571C213.429 147.466 212.355 148.161 211.111 148.655C209.866 149.141 208.49 149.384 206.981 149.384ZM206.981 145.139C207.714 145.139 208.366 144.99 208.937 144.692C209.508 144.385 209.99 143.963 210.382 143.426C210.774 142.889 211.072 142.267 211.277 141.56C211.481 140.844 211.584 140.077 211.584 139.259C211.584 138.159 211.4 137.166 211.034 136.28C210.676 135.385 210.156 134.673 209.474 134.145C208.792 133.616 207.961 133.352 206.981 133.352H206.381V145.139H206.981ZM229.683 149.384C227.663 149.384 225.924 148.974 224.467 148.156C223.018 147.33 221.901 146.162 221.117 144.653C220.333 143.136 219.941 141.342 219.941 139.271C219.941 137.251 220.333 135.479 221.117 133.953C221.901 132.428 223.005 131.239 224.428 130.386C225.86 129.534 227.539 129.108 229.465 129.108C230.761 129.108 231.967 129.317 233.083 129.734C234.208 130.143 235.188 130.761 236.024 131.588C236.867 132.415 237.524 133.455 237.992 134.707C238.461 135.952 238.695 137.409 238.695 139.08V140.575H222.115V137.2H233.569C233.569 136.416 233.399 135.722 233.058 135.116C232.717 134.511 232.244 134.038 231.639 133.697C231.042 133.348 230.347 133.173 229.555 133.173C228.728 133.173 227.995 133.365 227.356 133.749C226.725 134.124 226.231 134.631 225.873 135.27C225.515 135.901 225.332 136.604 225.323 137.379V140.588C225.323 141.56 225.502 142.399 225.86 143.107C226.227 143.814 226.742 144.359 227.407 144.743C228.072 145.126 228.86 145.318 229.772 145.318C230.377 145.318 230.931 145.233 231.434 145.062C231.937 144.892 232.367 144.636 232.725 144.295C233.083 143.955 233.356 143.537 233.544 143.043L238.58 143.375C238.325 144.585 237.801 145.642 237.008 146.545C236.224 147.44 235.21 148.139 233.965 148.642C232.73 149.136 231.302 149.384 229.683 149.384ZM242.249 149V129.364H247.695V136.983H249.23L254.573 129.364H260.965L254.024 139.105L261.042 149H254.573L249.728 142.033H247.695V149H242.249ZM262.32 133.646V129.364H280.116V133.646H273.788V149H268.597V133.646H262.32ZM288.621 141.815L295.69 129.364H301.059V149H295.869V136.51L288.825 149H283.417V129.364H288.621V141.815ZM305.425 149V129.364H313.799C316.219 129.364 318.133 129.824 319.539 130.744C320.945 131.665 321.648 132.973 321.648 134.669C321.648 135.734 321.252 136.621 320.459 137.328C319.667 138.036 318.567 138.513 317.161 138.76C318.337 138.845 319.339 139.114 320.165 139.565C321.001 140.009 321.635 140.584 322.07 141.291C322.513 141.999 322.735 142.783 322.735 143.643C322.735 144.76 322.437 145.719 321.84 146.52C321.252 147.321 320.387 147.935 319.245 148.361C318.111 148.787 316.726 149 315.09 149H305.425ZM310.501 144.922H315.09C315.849 144.922 316.441 144.743 316.867 144.385C317.302 144.018 317.519 143.52 317.519 142.889C317.519 142.19 317.302 141.641 316.867 141.24C316.441 140.839 315.849 140.639 315.09 140.639H310.501V144.922ZM310.501 137.443H313.914C314.459 137.443 314.924 137.366 315.307 137.213C315.699 137.051 315.998 136.821 316.202 136.523C316.415 136.224 316.522 135.871 316.522 135.462C316.522 134.857 316.279 134.384 315.793 134.043C315.307 133.702 314.643 133.531 313.799 133.531H310.501V137.443ZM339.834 137.009V141.291H329.581V137.009H339.834ZM331.371 129.364V149H326.167V129.364H331.371ZM343.247 129.364V149H338.082V129.364H343.247ZM356.344 149.384C354.358 149.384 352.641 148.962 351.192 148.118C349.752 147.266 348.64 146.081 347.856 144.564C347.072 143.038 346.68 141.27 346.68 139.259C346.68 137.23 347.072 135.457 347.856 133.94C348.64 132.415 349.752 131.23 351.192 130.386C352.641 129.534 354.358 129.108 356.344 129.108C358.33 129.108 360.043 129.534 361.483 130.386C362.932 131.23 364.049 132.415 364.833 133.94C365.617 135.457 366.009 137.23 366.009 139.259C366.009 141.27 365.617 143.038 364.833 144.564C364.049 146.081 362.932 147.266 361.483 148.118C360.043 148.962 358.33 149.384 356.344 149.384ZM356.37 145.165C357.273 145.165 358.028 144.909 358.633 144.398C359.238 143.878 359.694 143.17 360.001 142.276C360.316 141.381 360.474 140.362 360.474 139.22C360.474 138.078 360.316 137.06 360.001 136.165C359.694 135.27 359.238 134.562 358.633 134.043C358.028 133.523 357.273 133.263 356.37 133.263C355.458 133.263 354.691 133.523 354.069 134.043C353.455 134.562 352.991 135.27 352.675 136.165C352.368 137.06 352.215 138.078 352.215 139.22C352.215 140.362 352.368 141.381 352.675 142.276C352.991 143.17 353.455 143.878 354.069 144.398C354.691 144.909 355.458 145.165 356.37 145.165ZM374.753 141.815L381.823 129.364H387.192V149H382.002V136.51L374.958 149H369.55V129.364H374.753V141.815ZM380.89 122.511H384.687C384.678 124.062 384.103 125.311 382.961 126.257C381.827 127.203 380.293 127.676 378.358 127.676C376.415 127.676 374.877 127.203 373.743 126.257C372.61 125.311 372.043 124.062 372.043 122.511H375.814C375.806 123.099 375.993 123.628 376.377 124.097C376.769 124.565 377.43 124.8 378.358 124.8C379.262 124.8 379.91 124.57 380.302 124.109C380.694 123.649 380.89 123.116 380.89 122.511ZM405.528 122.818V149H399.992V122.818H405.528ZM409.085 127.382V122.818H430.588V127.382H422.572V149H417.101V127.382H409.085ZM445.171 133.749V138.07H433.231V133.749H445.171ZM449.812 149V129.364H466.981V149H461.778V133.646H454.951V149H449.812ZM480.2 149.384C478.214 149.384 476.497 148.962 475.048 148.118C473.607 147.266 472.495 146.081 471.711 144.564C470.927 143.038 470.535 141.27 470.535 139.259C470.535 137.23 470.927 135.457 471.711 133.94C472.495 132.415 473.607 131.23 475.048 130.386C476.497 129.534 478.214 129.108 480.2 129.108C482.186 129.108 483.899 129.534 485.339 130.386C486.788 131.23 487.904 132.415 488.688 133.94C489.472 135.457 489.865 137.23 489.865 139.259C489.865 141.27 489.472 143.038 488.688 144.564C487.904 146.081 486.788 147.266 485.339 148.118C483.899 148.962 482.186 149.384 480.2 149.384ZM480.225 145.165C481.129 145.165 481.883 144.909 482.488 144.398C483.093 143.878 483.549 143.17 483.856 142.276C484.171 141.381 484.329 140.362 484.329 139.22C484.329 138.078 484.171 137.06 483.856 136.165C483.549 135.27 483.093 134.562 482.488 134.043C481.883 133.523 481.129 133.263 480.225 133.263C479.313 133.263 478.546 133.523 477.924 134.043C477.311 134.562 476.846 135.27 476.531 136.165C476.224 137.06 476.07 138.078 476.07 139.22C476.07 140.362 476.224 141.381 476.531 142.276C476.846 143.17 477.311 143.878 477.924 144.398C478.546 144.909 479.313 145.165 480.225 145.165ZM491.872 154.753V144.679H493.38C493.815 144.406 494.164 143.972 494.428 143.375C494.701 142.778 494.923 142.075 495.093 141.266C495.272 140.456 495.409 139.582 495.502 138.645C495.605 137.699 495.694 136.744 495.771 135.781L496.282 129.364H511.342V144.679H514.384V154.753H509.194V149H497.19V154.753H491.872ZM498.801 144.679H506.203V133.557H500.91L500.705 135.781C500.561 137.878 500.352 139.659 500.079 141.125C499.806 142.582 499.38 143.767 498.801 144.679ZM516.024 154.753V144.679H517.532C517.967 144.406 518.317 143.972 518.581 143.375C518.854 142.778 519.075 142.075 519.246 141.266C519.425 140.456 519.561 139.582 519.655 138.645C519.757 137.699 519.846 136.744 519.923 135.781L520.434 129.364H535.494V144.679H538.537V154.753H533.346V149H521.342V154.753H516.024ZM522.953 144.679H530.355V133.557H525.062L524.858 135.781C524.713 137.878 524.504 139.659 524.231 141.125C523.959 142.582 523.532 143.767 522.953 144.679ZM550.659 149.384C548.639 149.384 546.901 148.974 545.443 148.156C543.994 147.33 542.878 146.162 542.094 144.653C541.31 143.136 540.918 141.342 540.918 139.271C540.918 137.251 541.31 135.479 542.094 133.953C542.878 132.428 543.982 131.239 545.405 130.386C546.837 129.534 548.516 129.108 550.442 129.108C551.737 129.108 552.943 129.317 554.06 129.734C555.185 130.143 556.165 130.761 557 131.588C557.844 132.415 558.5 133.455 558.969 134.707C559.438 135.952 559.672 137.409 559.672 139.08V140.575H543.091V137.2H554.546C554.546 136.416 554.375 135.722 554.034 135.116C553.693 134.511 553.22 134.038 552.615 133.697C552.019 133.348 551.324 133.173 550.531 133.173C549.705 133.173 548.972 133.365 548.333 133.749C547.702 134.124 547.208 134.631 546.85 135.27C546.492 135.901 546.308 136.604 546.3 137.379V140.588C546.3 141.56 546.479 142.399 546.837 143.107C547.203 143.814 547.719 144.359 548.384 144.743C549.048 145.126 549.837 145.318 550.749 145.318C551.354 145.318 551.908 145.233 552.411 145.062C552.914 144.892 553.344 144.636 553.702 144.295C554.06 143.955 554.333 143.537 554.52 143.043L559.557 143.375C559.301 144.585 558.777 145.642 557.985 146.545C557.2 147.44 556.186 148.139 554.942 148.642C553.706 149.136 552.279 149.384 550.659 149.384ZM563.226 156.364V129.364H568.595V132.662H568.838C569.077 132.134 569.422 131.597 569.874 131.051C570.334 130.497 570.931 130.037 571.664 129.67C572.405 129.295 573.325 129.108 574.425 129.108C575.857 129.108 577.178 129.483 578.388 130.233C579.598 130.974 580.566 132.095 581.29 133.595C582.014 135.087 582.377 136.957 582.377 139.207C582.377 141.398 582.023 143.247 581.316 144.756C580.617 146.256 579.662 147.393 578.452 148.169C577.25 148.936 575.904 149.32 574.412 149.32C573.355 149.32 572.456 149.145 571.715 148.795C570.982 148.446 570.381 148.007 569.912 147.479C569.443 146.942 569.085 146.401 568.838 145.855H568.672V156.364H563.226ZM568.557 139.182C568.557 140.349 568.719 141.368 569.043 142.237C569.367 143.107 569.835 143.784 570.449 144.27C571.063 144.747 571.808 144.986 572.686 144.986C573.573 144.986 574.323 144.743 574.936 144.257C575.55 143.763 576.014 143.081 576.33 142.212C576.654 141.334 576.816 140.324 576.816 139.182C576.816 138.048 576.658 137.051 576.343 136.19C576.027 135.33 575.563 134.656 574.949 134.17C574.335 133.685 573.581 133.442 572.686 133.442C571.8 133.442 571.05 133.676 570.436 134.145C569.831 134.614 569.367 135.278 569.043 136.139C568.719 137 568.557 138.014 568.557 139.182ZM584.026 149L590.891 138.786L584.064 129.364H590.277L595.378 137.047H596.222V129.364H601.668V137.047H602.486L607.587 129.364H613.8L606.986 138.786L613.838 149H607.485L602.435 141.33H601.668V149H596.222V141.33H595.455L590.379 149H584.026ZM616.91 149V129.364H622.356V136.983H623.89L629.233 129.364H635.626L628.684 139.105L635.702 149H629.233L624.388 142.033H622.356V149H616.91ZM646.144 149.384C644.124 149.384 642.385 148.974 640.928 148.156C639.479 147.33 638.362 146.162 637.578 144.653C636.794 143.136 636.402 141.342 636.402 139.271C636.402 137.251 636.794 135.479 637.578 133.953C638.362 132.428 639.466 131.239 640.889 130.386C642.321 129.534 644 129.108 645.926 129.108C647.222 129.108 648.428 129.317 649.544 129.734C650.669 130.143 651.649 130.761 652.485 131.588C653.328 132.415 653.985 133.455 654.453 134.707C654.922 135.952 655.156 137.409 655.156 139.08V140.575H638.575V137.2H650.03C650.03 136.416 649.86 135.722 649.519 135.116C649.178 134.511 648.705 134.038 648.1 133.697C647.503 133.348 646.808 133.173 646.016 133.173C645.189 133.173 644.456 133.365 643.817 133.749C643.186 134.124 642.692 134.631 642.334 135.27C641.976 135.901 641.793 136.604 641.784 137.379V140.588C641.784 141.56 641.963 142.399 642.321 143.107C642.688 143.814 643.203 144.359 643.868 144.743C644.533 145.126 645.321 145.318 646.233 145.318C646.838 145.318 647.392 145.233 647.895 145.062C648.398 144.892 648.828 144.636 649.186 144.295C649.544 143.955 649.817 143.537 650.004 143.043L655.041 143.375C654.786 144.585 654.262 145.642 653.469 146.545C652.685 147.44 651.671 148.139 650.426 148.642C649.191 149.136 647.763 149.384 646.144 149.384Z" fill="black"></path><path d="M328.927 105V85.3636H346.096V105H340.893V89.6463H334.066V105H328.927ZM350.443 112.364V85.3636H355.812V88.6619H356.055C356.294 88.1335 356.639 87.5966 357.091 87.0511C357.551 86.4972 358.147 86.0369 358.88 85.6705C359.622 85.2955 360.542 85.108 361.642 85.108C363.074 85.108 364.395 85.483 365.605 86.233C366.815 86.9744 367.782 88.0952 368.507 89.5952C369.231 91.0866 369.593 92.9574 369.593 95.2074C369.593 97.3977 369.24 99.2472 368.532 100.756C367.833 102.256 366.879 103.393 365.669 104.169C364.467 104.936 363.12 105.32 361.629 105.32C360.572 105.32 359.673 105.145 358.931 104.795C358.199 104.446 357.598 104.007 357.129 103.479C356.66 102.942 356.302 102.401 356.055 101.855H355.889V112.364H350.443ZM355.774 95.1818C355.774 96.3494 355.936 97.3679 356.26 98.2372C356.583 99.1065 357.052 99.7841 357.666 100.27C358.279 100.747 359.025 100.986 359.903 100.986C360.789 100.986 361.539 100.743 362.153 100.257C362.767 99.7628 363.231 99.081 363.547 98.2116C363.87 97.3338 364.032 96.3239 364.032 95.1818C364.032 94.0483 363.875 93.0511 363.559 92.1903C363.244 91.3295 362.779 90.6562 362.166 90.1705C361.552 89.6847 360.798 89.4418 359.903 89.4418C359.017 89.4418 358.267 89.6761 357.653 90.1449C357.048 90.6136 356.583 91.2784 356.26 92.1392C355.936 93 355.774 94.0142 355.774 95.1818ZM382.096 105.384C380.11 105.384 378.393 104.962 376.944 104.118C375.504 103.266 374.392 102.081 373.608 100.564C372.824 99.0384 372.431 97.2699 372.431 95.2585C372.431 93.2301 372.824 91.4574 373.608 89.9403C374.392 88.4148 375.504 87.2301 376.944 86.3864C378.393 85.5341 380.11 85.108 382.096 85.108C384.082 85.108 385.795 85.5341 387.235 86.3864C388.684 87.2301 389.801 88.4148 390.585 89.9403C391.369 91.4574 391.761 93.2301 391.761 95.2585C391.761 97.2699 391.369 99.0384 390.585 100.564C389.801 102.081 388.684 103.266 387.235 104.118C385.795 104.962 384.082 105.384 382.096 105.384ZM382.122 101.165C383.025 101.165 383.779 100.909 384.385 100.398C384.99 99.8778 385.446 99.1705 385.752 98.2756C386.068 97.3807 386.225 96.3622 386.225 95.2202C386.225 94.0781 386.068 93.0597 385.752 92.1648C385.446 91.2699 384.99 90.5625 384.385 90.0426C383.779 89.5227 383.025 89.2628 382.122 89.2628C381.21 89.2628 380.443 89.5227 379.821 90.0426C379.207 90.5625 378.743 91.2699 378.427 92.1648C378.12 93.0597 377.967 94.0781 377.967 95.2202C377.967 96.3622 378.12 97.3807 378.427 98.2756C378.743 99.1705 379.207 99.8778 379.821 100.398C380.443 100.909 381.21 101.165 382.122 101.165ZM404.174 105.384C402.163 105.384 400.433 104.957 398.984 104.105C397.544 103.244 396.436 102.051 395.66 100.526C394.893 99 394.51 97.2443 394.51 95.2585C394.51 93.2472 394.897 91.483 395.673 89.9659C396.457 88.4403 397.569 87.2514 399.01 86.3991C400.45 85.5384 402.163 85.108 404.149 85.108C405.862 85.108 407.362 85.419 408.649 86.0412C409.936 86.6634 410.954 87.5369 411.704 88.6619C412.454 89.7869 412.868 91.108 412.944 92.625H407.805C407.66 91.6449 407.277 90.8565 406.654 90.2599C406.041 89.6548 405.235 89.3523 404.238 89.3523C403.395 89.3523 402.657 89.5824 402.027 90.0426C401.404 90.4943 400.919 91.1548 400.569 92.0241C400.22 92.8935 400.045 93.946 400.045 95.1818C400.045 96.4347 400.216 97.5 400.556 98.3778C400.906 99.2557 401.396 99.9247 402.027 100.385C402.657 100.845 403.395 101.075 404.238 101.075C404.86 101.075 405.419 100.947 405.913 100.692C406.416 100.436 406.829 100.065 407.153 99.5795C407.485 99.0852 407.703 98.4929 407.805 97.8026H412.944C412.859 99.3026 412.45 100.624 411.717 101.766C410.993 102.899 409.991 103.786 408.713 104.425C407.434 105.064 405.922 105.384 404.174 105.384ZM415.092 89.6463V85.3636H432.887V89.6463H426.559V105H421.369V89.6463H415.092ZM444.358 105.384C442.372 105.384 440.655 104.962 439.206 104.118C437.766 103.266 436.653 102.081 435.869 100.564C435.085 99.0384 434.693 97.2699 434.693 95.2585C434.693 93.2301 435.085 91.4574 435.869 89.9403C436.653 88.4148 437.766 87.2301 439.206 86.3864C440.655 85.5341 442.372 85.108 444.358 85.108C446.344 85.108 448.057 85.5341 449.497 86.3864C450.946 87.2301 452.062 88.4148 452.847 89.9403C453.631 91.4574 454.023 93.2301 454.023 95.2585C454.023 97.2699 453.631 99.0384 452.847 100.564C452.062 102.081 450.946 103.266 449.497 104.118C448.057 104.962 446.344 105.384 444.358 105.384ZM444.384 101.165C445.287 101.165 446.041 100.909 446.646 100.398C447.251 99.8778 447.707 99.1705 448.014 98.2756C448.33 97.3807 448.487 96.3622 448.487 95.2202C448.487 94.0781 448.33 93.0597 448.014 92.1648C447.707 91.2699 447.251 90.5625 446.646 90.0426C446.041 89.5227 445.287 89.2628 444.384 89.2628C443.472 89.2628 442.705 89.5227 442.082 90.0426C441.469 90.5625 441.004 91.2699 440.689 92.1648C440.382 93.0597 440.229 94.0781 440.229 95.2202C440.229 96.3622 440.382 97.3807 440.689 98.2756C441.004 99.1705 441.469 99.8778 442.082 100.398C442.705 100.909 443.472 101.165 444.384 101.165ZM462.767 97.8153L469.837 85.3636H475.206V105H470.016V92.5099L462.972 105H457.564V85.3636H462.767V97.8153ZM468.903 78.5114H472.7C472.692 80.0625 472.116 81.3111 470.974 82.2571C469.841 83.2031 468.307 83.6761 466.372 83.6761C464.429 83.6761 462.891 83.2031 461.757 82.2571C460.624 81.3111 460.057 80.0625 460.057 78.5114H463.828C463.82 79.0994 464.007 79.6278 464.391 80.0966C464.783 80.5653 465.443 80.7997 466.372 80.7997C467.276 80.7997 467.923 80.5696 468.315 80.1094C468.707 79.6491 468.903 79.1165 468.903 78.5114Z" fill="#5C35F9"></path><rect x="341" y="42" width="117" height="25" rx="12.5" fill="#9378FF"></rect><path d="M351.87 59V52.4545H357.21V59H355.961V53.554H353.11V59H351.87ZM361.67 59.1321C361.057 59.1321 360.521 58.9915 360.064 58.7102C359.606 58.429 359.251 58.0355 358.998 57.5298C358.746 57.0241 358.619 56.4332 358.619 55.7571C358.619 55.0781 358.746 54.4844 358.998 53.9759C359.251 53.4673 359.606 53.0724 360.064 52.7912C360.521 52.5099 361.057 52.3693 361.67 52.3693C362.284 52.3693 362.819 52.5099 363.277 52.7912C363.734 53.0724 364.089 53.4673 364.342 53.9759C364.595 54.4844 364.721 55.0781 364.721 55.7571C364.721 56.4332 364.595 57.0241 364.342 57.5298C364.089 58.0355 363.734 58.429 363.277 58.7102C362.819 58.9915 362.284 59.1321 361.67 59.1321ZM361.675 58.0625C362.072 58.0625 362.402 57.9574 362.663 57.7472C362.925 57.5369 363.118 57.2571 363.243 56.9077C363.371 56.5582 363.434 56.1733 363.434 55.7528C363.434 55.3352 363.371 54.9517 363.243 54.6023C363.118 54.25 362.925 53.9673 362.663 53.7543C362.402 53.5412 362.072 53.4347 361.675 53.4347C361.274 53.4347 360.942 53.5412 360.677 53.7543C360.416 53.9673 360.221 54.25 360.094 54.6023C359.969 54.9517 359.906 55.3352 359.906 55.7528C359.906 56.1733 359.969 56.5582 360.094 56.9077C360.221 57.2571 360.416 57.5369 360.677 57.7472C360.942 57.9574 361.274 58.0625 361.675 58.0625ZM365.504 60.8878V57.8963H366.037C366.173 57.7713 366.289 57.6222 366.382 57.4489C366.479 57.2756 366.56 57.0696 366.625 56.831C366.693 56.5923 366.75 56.3139 366.796 55.9957C366.841 55.6747 366.881 55.3082 366.915 54.8963L367.119 52.4545H371.568V57.8963H372.574V60.8878H371.33V59H366.766V60.8878H365.504ZM367.401 57.8963H370.324V53.5455H368.262L368.125 54.8963C368.06 55.5838 367.977 56.1804 367.878 56.6861C367.779 57.1889 367.619 57.5923 367.401 57.8963ZM373.18 60.8878V57.8963H373.713C373.849 57.7713 373.964 57.6222 374.058 57.4489C374.155 57.2756 374.236 57.0696 374.301 56.831C374.369 56.5923 374.426 56.3139 374.471 55.9957C374.517 55.6747 374.557 55.3082 374.591 54.8963L374.795 52.4545H379.244V57.8963H380.25V60.8878H379.006V59H374.442V60.8878H373.18ZM375.077 57.8963H378V53.5455H375.937L375.801 54.8963C375.736 55.5838 375.653 56.1804 375.554 56.6861C375.454 57.1889 375.295 57.5923 375.077 57.8963ZM384.316 59.1321C383.671 59.1321 383.116 58.9943 382.65 58.7188C382.187 58.4403 381.829 58.0497 381.576 57.5469C381.326 57.0412 381.201 56.4489 381.201 55.7699C381.201 55.0994 381.326 54.5085 381.576 53.9972C381.829 53.4858 382.181 53.0866 382.633 52.7997C383.088 52.5128 383.619 52.3693 384.227 52.3693C384.596 52.3693 384.954 52.4304 385.301 52.5526C385.647 52.6747 385.958 52.8665 386.234 53.1278C386.509 53.3892 386.727 53.7287 386.886 54.1463C387.045 54.5611 387.124 55.0653 387.124 55.6591V56.1108H381.921V55.1562H385.876C385.876 54.821 385.808 54.5241 385.671 54.2656C385.535 54.0043 385.343 53.7983 385.096 53.6477C384.852 53.4972 384.565 53.4219 384.235 53.4219C383.877 53.4219 383.565 53.5099 383.298 53.6861C383.034 53.8594 382.829 54.0866 382.684 54.3679C382.542 54.6463 382.471 54.9489 382.471 55.2756V56.0213C382.471 56.4588 382.548 56.831 382.701 57.1378C382.857 57.4446 383.075 57.679 383.353 57.8409C383.632 58 383.957 58.0795 384.329 58.0795C384.57 58.0795 384.791 58.0455 384.99 57.9773C385.188 57.9062 385.36 57.8011 385.505 57.6619C385.65 57.5227 385.761 57.3509 385.838 57.1463L387.044 57.3636C386.947 57.7187 386.774 58.0298 386.524 58.2969C386.276 58.5611 385.965 58.767 385.59 58.9148C385.218 59.0597 384.794 59.1321 384.316 59.1321ZM388.538 61.4545V52.4545H389.782V53.5156H389.889C389.963 53.3793 390.069 53.2216 390.209 53.0426C390.348 52.8636 390.541 52.7074 390.788 52.5739C391.035 52.4375 391.362 52.3693 391.768 52.3693C392.297 52.3693 392.768 52.5028 393.183 52.7699C393.598 53.0369 393.923 53.4219 394.159 53.9247C394.398 54.4276 394.517 55.0327 394.517 55.7401C394.517 56.4474 394.399 57.054 394.163 57.5597C393.927 58.0625 393.604 58.4503 393.192 58.723C392.78 58.9929 392.309 59.1278 391.781 59.1278C391.383 59.1278 391.058 59.0611 390.805 58.9276C390.555 58.794 390.359 58.6378 390.217 58.4588C390.075 58.2798 389.966 58.1207 389.889 57.9815H389.812V61.4545H388.538ZM389.787 55.7273C389.787 56.1875 389.854 56.5909 389.987 56.9375C390.121 57.2841 390.314 57.5554 390.567 57.7514C390.819 57.9446 391.129 58.0412 391.496 58.0412C391.876 58.0412 392.194 57.9403 392.45 57.7386C392.706 57.5341 392.899 57.2571 393.03 56.9077C393.163 56.5582 393.23 56.1648 393.23 55.7273C393.23 55.2955 393.165 54.9077 393.034 54.5639C392.906 54.2202 392.713 53.9489 392.454 53.75C392.199 53.5511 391.879 53.4517 391.496 53.4517C391.126 53.4517 390.814 53.5469 390.558 53.7372C390.305 53.9276 390.113 54.1932 389.983 54.5341C389.852 54.875 389.787 55.2727 389.787 55.7273ZM395.269 59L397.805 55.6506L395.299 52.4545H396.782L398.806 55.1733H399.262V52.4545H400.536V55.1733H400.979L403.003 52.4545H404.486L401.993 55.6506L404.516 59H403.003L400.962 56.2727H400.536V59H399.262V56.2727H398.836L396.782 59H395.269ZM405.812 59V52.4545H407.086V55.1989H407.699L409.86 52.4545H411.437L408.901 55.6378L411.466 59H409.885L407.912 56.3835H407.086V59H405.812ZM414.361 59.1449C413.946 59.1449 413.571 59.0682 413.236 58.9148C412.901 58.7585 412.635 58.5327 412.439 58.2372C412.246 57.9418 412.149 57.5795 412.149 57.1506C412.149 56.7812 412.22 56.4773 412.362 56.2386C412.504 56 412.696 55.8111 412.938 55.6719C413.179 55.5327 413.449 55.4276 413.747 55.3565C414.046 55.2855 414.35 55.2315 414.659 55.1946C415.051 55.1491 415.369 55.1122 415.614 55.0838C415.858 55.0526 416.036 55.0028 416.146 54.9347C416.257 54.8665 416.313 54.7557 416.313 54.6023V54.5724C416.313 54.2003 416.208 53.9119 415.997 53.7074C415.79 53.5028 415.48 53.4006 415.068 53.4006C414.639 53.4006 414.301 53.4957 414.054 53.6861C413.81 53.8736 413.641 54.0824 413.547 54.3125L412.35 54.0398C412.492 53.642 412.699 53.321 412.972 53.0767C413.247 52.8295 413.564 52.6506 413.922 52.5398C414.28 52.4261 414.656 52.3693 415.051 52.3693C415.313 52.3693 415.59 52.4006 415.882 52.4631C416.178 52.5227 416.453 52.6335 416.709 52.7955C416.968 52.9574 417.179 53.1889 417.344 53.4901C417.509 53.7884 417.591 54.1761 417.591 54.6534V59H416.347V58.1051H416.296C416.213 58.2699 416.09 58.4318 415.925 58.5909C415.76 58.75 415.548 58.8821 415.29 58.9872C415.031 59.0923 414.722 59.1449 414.361 59.1449ZM414.638 58.1222C414.99 58.1222 415.291 58.0526 415.541 57.9134C415.794 57.7741 415.986 57.5923 416.117 57.3679C416.25 57.1406 416.317 56.8977 416.317 56.6392V55.7955C416.271 55.8409 416.183 55.8835 416.053 55.9233C415.925 55.9602 415.779 55.9929 415.614 56.0213C415.449 56.0469 415.289 56.071 415.132 56.0938C414.976 56.1136 414.845 56.1307 414.74 56.1449C414.493 56.1761 414.267 56.2287 414.063 56.3026C413.861 56.3764 413.699 56.483 413.577 56.6222C413.458 56.7585 413.398 56.9403 413.398 57.1676C413.398 57.483 413.514 57.7216 413.747 57.8835C413.98 58.0426 414.277 58.1222 414.638 58.1222ZM422.447 59V58.0455L425.4 54.9858C425.715 54.6534 425.975 54.3622 426.18 54.1122C426.387 53.8594 426.542 53.6193 426.644 53.392C426.747 53.1648 426.798 52.9233 426.798 52.6676C426.798 52.3778 426.73 52.1278 426.593 51.9176C426.457 51.7045 426.271 51.5412 426.035 51.4276C425.799 51.3111 425.534 51.2528 425.238 51.2528C424.926 51.2528 424.653 51.3168 424.42 51.4446C424.187 51.5724 424.008 51.7528 423.883 51.9858C423.758 52.2187 423.695 52.4915 423.695 52.804H422.438C422.438 52.2727 422.561 51.8082 422.805 51.4105C423.049 51.0128 423.384 50.7045 423.811 50.4858C424.237 50.2642 424.721 50.1534 425.264 50.1534C425.812 50.1534 426.295 50.2628 426.713 50.4815C427.133 50.6974 427.461 50.9929 427.697 51.3679C427.933 51.7401 428.051 52.1605 428.051 52.6293C428.051 52.9531 427.99 53.2699 427.867 53.5795C427.748 53.8892 427.539 54.2344 427.241 54.6151C426.943 54.9929 426.528 55.4517 425.997 55.9915L424.262 57.8068V57.8707H428.191V59H422.447ZM429.436 57.2955V56.2301L433.207 50.2727H434.046V51.8409H433.514L430.816 56.1108V56.179H435.985V57.2955H429.436ZM433.573 59V56.9716L433.582 56.4858V50.2727H434.83V59H433.573ZM440.811 49.8636L437.999 60.3125H436.861L439.673 49.8636H440.811ZM442.171 59L445.98 51.4659V51.402H441.574V50.2727H447.344V51.4403L443.547 59H442.171Z" fill="white"></path></svg> 