<svg width="600" height="200" viewBox="0 0 600 200" fill="none" xmlns="http://www.w3.org/2000/svg">
<path d="M210.156 119.996L373.093 102.713L242.648 120.738" stroke="#9378FF" stroke-width="10"/>
<path d="M117.9 87.9851H112.3C112.198 87.2606 111.989 86.6172 111.674 86.0547C111.358 85.4837 110.954 84.9979 110.459 84.5973C109.965 84.1967 109.394 83.8899 108.746 83.6768C108.107 83.4638 107.412 83.3572 106.662 83.3572C105.307 83.3572 104.127 83.6939 103.121 84.3672C102.116 85.0319 101.336 86.0035 100.782 87.2819C100.228 88.5518 99.951 90.0944 99.951 91.9098C99.951 93.7763 100.228 95.3444 100.782 96.6143C101.344 97.8842 102.128 98.843 103.134 99.4908C104.14 100.139 105.303 100.463 106.624 100.463C107.366 100.463 108.052 100.365 108.682 100.169C109.321 99.9723 109.888 99.6868 110.383 99.3118C110.877 98.9283 111.286 98.4638 111.61 97.9183C111.942 97.3729 112.172 96.7507 112.3 96.0518L117.9 96.0774C117.755 97.2791 117.393 98.4382 116.813 99.5547C116.242 100.663 115.471 101.656 114.499 102.534C113.536 103.403 112.385 104.093 111.047 104.605C109.718 105.108 108.214 105.359 106.535 105.359C104.199 105.359 102.111 104.831 100.27 103.774C98.438 102.717 96.989 101.187 95.924 99.1839C94.867 97.1811 94.339 94.7564 94.339 91.9098C94.339 89.0547 94.875 86.6257 95.949 84.6229C97.023 82.62 98.481 81.0944 100.321 80.0462C102.162 78.9893 104.233 78.4609 106.535 78.4609C108.052 78.4609 109.458 78.674 110.753 79.1001C112.057 79.5263 113.212 80.1484 114.218 80.9666C115.223 81.7763 116.042 82.7692 116.672 83.9453C117.312 85.1214 117.721 86.468 117.9 87.9851ZM127.366 105.372C126.113 105.372 124.997 105.154 124.017 104.72C123.037 104.277 122.261 103.625 121.69 102.764C121.128 101.894 120.846 100.812 120.846 99.5163C120.846 98.4254 121.047 97.5092 121.447 96.7677C121.848 96.0263 122.393 95.4297 123.084 94.978C123.774 94.5263 124.558 94.1854 125.436 93.9552C126.322 93.7251 127.251 93.5632 128.223 93.4695C129.365 93.3501 130.285 93.2393 130.984 93.1371C131.683 93.0263 132.19 92.8643 132.505 92.6513C132.821 92.4382 132.978 92.1229 132.978 91.7052V91.6285C132.978 90.8189 132.723 90.1925 132.211 89.7493C131.709 89.3061 130.993 89.0845 130.064 89.0845C129.084 89.0845 128.304 89.3018 127.724 89.7365C127.145 90.1626 126.761 90.6996 126.574 91.3473L121.537 90.9382C121.792 89.745 122.295 88.7138 123.045 87.8445C123.795 86.9666 124.763 86.2933 125.947 85.8246C127.14 85.3473 128.521 85.1087 130.089 85.1087C131.18 85.1087 132.224 85.2365 133.221 85.4922C134.227 85.7479 135.118 86.1442 135.893 86.6811C136.677 87.218 137.295 87.9084 137.747 88.7521C138.199 89.5873 138.424 90.5888 138.424 91.7564V105.001H133.26V102.278H133.106C132.791 102.892 132.369 103.433 131.841 103.902C131.312 104.362 130.677 104.724 129.936 104.988C129.194 105.244 128.338 105.372 127.366 105.372ZM128.926 101.613C129.727 101.613 130.434 101.456 131.048 101.14C131.662 100.816 132.143 100.382 132.493 99.8359C132.842 99.2905 133.017 98.6726 133.017 97.9822V95.8984C132.846 96.0092 132.612 96.1115 132.314 96.2052C132.024 96.2905 131.696 96.3714 131.329 96.4481C130.963 96.5163 130.596 96.5802 130.23 96.6399C129.863 96.691 129.531 96.7379 129.233 96.7805C128.594 96.8743 128.035 97.0234 127.558 97.228C127.081 97.4325 126.71 97.7095 126.446 98.0589C126.182 98.3998 126.049 98.826 126.049 99.3373C126.049 100.079 126.318 100.646 126.855 101.038C127.4 101.421 128.091 101.613 128.926 101.613ZM154.258 98.9794L159.576 85.3643H163.718L156.06 105.001H152.442L144.964 85.3643H149.093L154.258 98.9794ZM147.853 85.3643V105.001H142.65V85.3643H147.853ZM160.931 105.001V85.3643H166.07V105.001H160.931ZM173.696 91.3984H179.564C182.163 91.3984 184.192 92.0206 185.649 93.2649C187.106 94.5007 187.835 96.1541 187.835 98.2251C187.835 99.5717 187.507 100.757 186.851 101.779C186.194 102.794 185.248 103.586 184.013 104.157C182.777 104.72 181.294 105.001 179.564 105.001H170.282V85.3643H175.486V100.718H179.564C180.476 100.718 181.226 100.488 181.814 100.028C182.402 99.5675 182.7 98.9794 182.709 98.2635C182.7 97.505 182.402 96.8871 181.814 96.4098C181.226 95.924 180.476 95.6811 179.564 95.6811H173.696V91.3984ZM189.944 105.001V85.3643H195.39V105.001H189.944ZM204.946 97.816L212.016 85.3643H217.385V105.001H212.195V92.5106L205.151 105.001H199.743V85.3643H204.946V97.816ZM211.083 78.5121H214.88C214.871 80.0632 214.296 81.3118 213.154 82.2578C212.02 83.2038 210.486 83.6768 208.552 83.6768C206.608 83.6768 205.07 83.2038 203.937 82.2578C202.803 81.3118 202.236 80.0632 202.236 78.5121H206.008C205.999 79.1001 206.187 79.6285 206.57 80.0973C206.962 80.566 207.623 80.8004 208.552 80.8004C209.455 80.8004 210.103 80.5703 210.495 80.1101C210.887 79.6498 211.083 79.1172 211.083 78.5121ZM389.06 105.001V85.3643H406.229V105.001H401.026V89.647H394.199V105.001H389.06ZM413.234 112.365C412.544 112.365 411.896 112.309 411.291 112.198C410.695 112.096 410.2 111.964 409.808 111.802L411.036 107.737C411.675 107.933 412.25 108.039 412.761 108.056C413.281 108.073 413.729 107.954 414.104 107.698C414.487 107.443 414.798 107.008 415.037 106.394L415.357 105.563L408.313 85.3643H414.04L418.105 99.7848H418.31L422.413 85.3643H428.179L420.547 107.123C420.181 108.18 419.682 109.1 419.051 109.885C418.429 110.677 417.641 111.287 416.686 111.713C415.732 112.147 414.581 112.365 413.234 112.365ZM429.943 89.647V85.3643H447.739V89.647H441.411V105.001H436.22V89.647H429.943ZM454.454 91.3984H460.321C462.921 91.3984 464.949 92.0206 466.407 93.2649C467.864 94.5007 468.593 96.1541 468.593 98.2251C468.593 99.5717 468.265 100.757 467.608 101.779C466.952 102.794 466.006 103.586 464.77 104.157C463.535 104.72 462.052 105.001 460.321 105.001H451.04V85.3643H456.243V100.718H460.321C461.233 100.718 461.983 100.488 462.571 100.028C463.16 99.5675 463.458 98.9794 463.466 98.2635C463.458 97.505 463.16 96.8871 462.571 96.4098C461.983 95.924 461.233 95.6811 460.321 95.6811H454.454V91.3984ZM480.536 105.001V85.3643H485.982V92.9837H487.516L492.86 85.3643H499.252L492.31 95.1058L499.329 105.001H492.86L488.015 98.0334H485.982V105.001H480.536ZM52.054 133.43C51.44 133.43 50.894 133.549 50.417 133.788C49.94 134.027 49.565 134.359 49.292 134.785C49.028 135.203 48.896 135.697 48.896 136.268H44C44 135.203 44.204 134.231 44.613 133.353C45.022 132.467 45.593 131.704 46.326 131.065C47.059 130.417 47.912 129.919 48.883 129.569C49.863 129.22 50.92 129.045 52.054 129.045C54.031 129.045 55.693 129.488 57.039 130.375C58.394 131.252 59.417 132.441 60.108 133.941C60.806 135.433 61.156 137.108 61.156 138.965V139.439C61.156 141.305 60.811 142.988 60.12 144.488C59.43 145.988 58.407 147.177 57.052 148.055C55.706 148.924 54.039 149.359 52.054 149.359C50.468 149.359 49.071 149.048 47.86 148.426C46.65 147.795 45.704 146.904 45.022 145.754C44.34 144.595 44 143.218 44 141.625H48.896C48.896 142.23 49.024 142.784 49.279 143.287C49.535 143.789 49.897 144.19 50.366 144.488C50.843 144.787 51.406 144.94 52.054 144.948C53.068 144.94 53.856 144.654 54.419 144.092C54.99 143.529 55.386 142.826 55.608 141.983C55.838 141.13 55.953 140.282 55.953 139.439V138.965C55.953 138.037 55.833 137.15 55.595 136.306C55.365 135.463 54.964 134.772 54.393 134.235C53.831 133.698 53.051 133.43 52.054 133.43ZM57.525 137.572V140.794H50.583V137.572H57.525ZM74.122 155.674V122.819H79.555V155.674H74.122ZM74.122 149.385C72.614 149.385 71.237 149.142 69.993 148.656C68.749 148.162 67.675 147.467 66.771 146.572C65.868 145.669 65.169 144.599 64.675 143.363C64.18 142.119 63.933 140.751 63.933 139.26C63.933 137.751 64.18 136.379 64.675 135.143C65.169 133.899 65.868 132.829 66.771 131.934C67.675 131.031 68.749 130.336 69.993 129.85C71.237 129.356 72.614 129.109 74.122 129.109H75.132V149.385H74.122ZM74.122 145.14H74.723V133.353H74.122C73.389 133.353 72.737 133.507 72.166 133.813C71.595 134.12 71.114 134.542 70.722 135.079C70.329 135.608 70.031 136.23 69.827 136.946C69.631 137.662 69.533 138.433 69.533 139.26C69.533 140.35 69.712 141.343 70.07 142.238C70.427 143.125 70.952 143.832 71.642 144.36C72.332 144.88 73.159 145.14 74.122 145.14ZM79.555 149.385H78.545V129.109H79.555C81.064 129.109 82.44 129.356 83.685 129.85C84.929 130.336 86.003 131.031 86.906 131.934C87.81 132.829 88.508 133.899 89.003 135.143C89.497 136.379 89.744 137.751 89.744 139.26C89.744 140.751 89.497 142.119 89.003 143.363C88.508 144.599 87.81 145.669 86.906 146.572C86.003 147.467 84.929 148.162 83.685 148.656C82.44 149.142 81.064 149.385 79.555 149.385ZM79.555 145.14C80.288 145.14 80.94 144.991 81.511 144.693C82.082 144.386 82.564 143.964 82.956 143.427C83.348 142.89 83.646 142.268 83.851 141.561C84.055 140.845 84.158 140.078 84.158 139.26C84.158 138.16 83.974 137.167 83.608 136.281C83.25 135.386 82.73 134.674 82.048 134.146C81.366 133.617 80.535 133.353 79.555 133.353H78.954V145.14H79.555ZM102.704 155.674V122.819H108.137V155.674H102.704ZM102.704 149.385C101.196 149.385 99.819 149.142 98.575 148.656C97.331 148.162 96.257 147.467 95.353 146.572C94.45 145.669 93.751 144.599 93.257 143.363C92.762 142.119 92.515 140.751 92.515 139.26C92.515 137.751 92.762 136.379 93.257 135.143C93.751 133.899 94.45 132.829 95.353 131.934C96.257 131.031 97.331 130.336 98.575 129.85C99.819 129.356 101.196 129.109 102.704 129.109H103.714V149.385H102.704ZM102.704 145.14H103.305V133.353H102.704C101.971 133.353 101.319 133.507 100.748 133.813C100.177 134.12 99.696 134.542 99.304 135.079C98.912 135.608 98.613 136.23 98.409 136.946C98.213 137.662 98.115 138.433 98.115 139.26C98.115 140.35 98.294 141.343 98.652 142.238C99.01 143.125 99.534 143.832 100.224 144.36C100.914 144.88 101.741 145.14 102.704 145.14ZM108.137 149.385H107.127V129.109H108.137C109.646 129.109 111.022 129.356 112.267 129.85C113.511 130.336 114.585 131.031 115.488 131.934C116.392 132.829 117.09 133.899 117.585 135.143C118.079 136.379 118.326 137.751 118.326 139.26C118.326 140.751 118.079 142.119 117.585 143.363C117.09 144.599 116.392 145.669 115.488 146.572C114.585 147.467 113.511 148.162 112.267 148.656C111.022 149.142 109.646 149.385 108.137 149.385ZM108.137 145.14C108.87 145.14 109.522 144.991 110.093 144.693C110.664 144.386 111.146 143.964 111.538 143.427C111.93 142.89 112.228 142.268 112.433 141.561C112.637 140.845 112.74 140.078 112.74 139.26C112.74 138.16 112.556 137.167 112.19 136.281C111.832 135.386 111.312 134.674 110.63 134.146C109.948 133.617 109.117 133.353 108.137 133.353H107.537V145.14H108.137ZM130.839 149.385C128.819 149.385 127.08 148.975 125.623 148.157C124.174 147.331 123.057 146.163 122.273 144.654C121.489 143.137 121.097 141.343 121.097 139.272C121.097 137.252 121.489 135.48 122.273 133.954C123.057 132.429 124.161 131.24 125.584 130.387C127.016 129.535 128.695 129.109 130.621 129.109C131.917 129.109 133.123 129.318 134.239 129.735C135.364 130.144 136.344 130.762 137.18 131.589C138.023 132.416 138.68 133.456 139.148 134.708C139.617 135.953 139.851 137.41 139.851 139.081V140.576H123.271V137.201H134.725C134.725 136.417 134.555 135.723 134.214 135.117C133.873 134.512 133.4 134.039 132.795 133.698C132.198 133.349 131.503 133.174 130.711 133.174C129.884 133.174 129.151 133.366 128.512 133.75C127.881 134.125 127.387 134.632 127.029 135.271C126.671 135.902 126.488 136.605 126.479 137.38V140.589C126.479 141.561 126.658 142.4 127.016 143.108C127.383 143.815 127.898 144.36 128.563 144.744C129.228 145.127 130.016 145.319 130.928 145.319C131.533 145.319 132.087 145.234 132.59 145.063C133.093 144.893 133.523 144.637 133.881 144.296C134.239 143.956 134.512 143.538 134.7 143.044L139.736 143.376C139.481 144.586 138.957 145.643 138.164 146.546C137.38 147.441 136.366 148.14 135.121 148.643C133.886 149.137 132.458 149.385 130.839 149.385ZM143.405 149.001V129.365H148.851V136.984H150.386L155.729 129.365H162.121L155.18 139.106L162.198 149.001H155.729L150.884 142.034H148.851V149.001H143.405ZM163.476 133.647V129.365H181.272V133.647H174.944V149.001H169.753V133.647H163.476ZM189.777 141.816L196.846 129.365H202.215V149.001H197.025V136.511L189.981 149.001H184.573V129.365H189.777V141.816ZM206.581 149.001V129.365H214.955C217.375 129.365 219.289 129.825 220.695 130.745C222.101 131.666 222.804 132.974 222.804 134.67C222.804 135.735 222.408 136.622 221.615 137.329C220.823 138.037 219.723 138.514 218.317 138.761C219.493 138.846 220.495 139.115 221.321 139.566C222.157 140.01 222.791 140.585 223.226 141.292C223.669 142 223.891 142.784 223.891 143.644C223.891 144.761 223.593 145.72 222.996 146.521C222.408 147.322 221.543 147.936 220.401 148.362C219.267 148.788 217.882 149.001 216.246 149.001H206.581ZM211.657 144.923H216.246C217.005 144.923 217.597 144.744 218.023 144.386C218.458 144.019 218.675 143.521 218.675 142.89C218.675 142.191 218.458 141.642 218.023 141.241C217.597 140.84 217.005 140.64 216.246 140.64H211.657V144.923ZM211.657 137.444H215.07C215.615 137.444 216.08 137.367 216.463 137.214C216.855 137.052 217.154 136.822 217.358 136.524C217.571 136.225 217.678 135.872 217.678 135.463C217.678 134.858 217.435 134.385 216.949 134.044C216.463 133.703 215.799 133.532 214.955 133.532H211.657V137.444ZM240.99 137.01V141.292H230.737V137.01H240.99ZM232.527 129.365V149.001H227.323V129.365H232.527ZM244.403 129.365V149.001H239.238V129.365H244.403ZM257.5 149.385C255.514 149.385 253.797 148.963 252.348 148.119C250.908 147.267 249.796 146.082 249.012 144.565C248.228 143.039 247.836 141.271 247.836 139.26C247.836 137.231 248.228 135.458 249.012 133.941C249.796 132.416 250.908 131.231 252.348 130.387C253.797 129.535 255.514 129.109 257.5 129.109C259.486 129.109 261.199 129.535 262.639 130.387C264.088 131.231 265.205 132.416 265.989 133.941C266.773 135.458 267.165 137.231 267.165 139.26C267.165 141.271 266.773 143.039 265.989 144.565C265.205 146.082 264.088 147.267 262.639 148.119C261.199 148.963 259.486 149.385 257.5 149.385ZM257.526 145.166C258.429 145.166 259.184 144.91 259.789 144.399C260.394 143.879 260.85 143.171 261.157 142.277C261.472 141.382 261.63 140.363 261.63 139.221C261.63 138.079 261.472 137.061 261.157 136.166C260.85 135.271 260.394 134.563 259.789 134.044C259.184 133.524 258.429 133.264 257.526 133.264C256.614 133.264 255.847 133.524 255.225 134.044C254.611 134.563 254.147 135.271 253.831 136.166C253.524 137.061 253.371 138.079 253.371 139.221C253.371 140.363 253.524 141.382 253.831 142.277C254.147 143.171 254.611 143.879 255.225 144.399C255.847 144.91 256.614 145.166 257.526 145.166ZM275.909 141.816L282.979 129.365H288.348V149.001H283.158V136.511L276.114 149.001H270.706V129.365H275.909V141.816ZM282.046 122.512H285.843C285.834 124.063 285.259 125.312 284.117 126.258C282.983 127.204 281.449 127.677 279.514 127.677C277.571 127.677 276.033 127.204 274.899 126.258C273.766 125.312 273.199 124.063 273.199 122.512H276.97C276.962 123.1 277.149 123.629 277.533 124.098C277.925 124.566 278.586 124.801 279.514 124.801C280.418 124.801 281.066 124.571 281.458 124.11C281.85 123.65 282.046 123.117 282.046 122.512ZM306.684 122.819V149.001H301.148V122.819H306.684ZM310.241 127.383V122.819H331.744V127.383H323.728V149.001H318.257V127.383H310.241ZM346.327 133.75V138.071H334.387V133.75H346.327ZM350.968 149.001V129.365H368.137V149.001H362.934V133.647H356.107V149.001H350.968ZM381.356 149.385C379.37 149.385 377.653 148.963 376.204 148.119C374.763 147.267 373.651 146.082 372.867 144.565C372.083 143.039 371.691 141.271 371.691 139.26C371.691 137.231 372.083 135.458 372.867 133.941C373.651 132.416 374.763 131.231 376.204 130.387C377.653 129.535 379.37 129.109 381.356 129.109C383.342 129.109 385.055 129.535 386.495 130.387C387.944 131.231 389.06 132.416 389.844 133.941C390.628 135.458 391.021 137.231 391.021 139.26C391.021 141.271 390.628 143.039 389.844 144.565C389.06 146.082 387.944 147.267 386.495 148.119C385.055 148.963 383.342 149.385 381.356 149.385ZM381.381 145.166C382.285 145.166 383.039 144.91 383.644 144.399C384.249 143.879 384.705 143.171 385.012 142.277C385.327 141.382 385.485 140.363 385.485 139.221C385.485 138.079 385.327 137.061 385.012 136.166C384.705 135.271 384.249 134.563 383.644 134.044C383.039 133.524 382.285 133.264 381.381 133.264C380.469 133.264 379.702 133.524 379.08 134.044C378.467 134.563 378.002 135.271 377.687 136.166C377.38 137.061 377.226 138.079 377.226 139.221C377.226 140.363 377.38 141.382 377.687 142.277C378.002 143.171 378.467 143.879 379.08 144.399C379.702 144.91 380.469 145.166 381.381 145.166ZM393.028 154.754V144.68H394.536C394.971 144.407 395.32 143.973 395.584 143.376C395.857 142.779 396.079 142.076 396.249 141.267C396.428 140.457 396.565 139.583 396.658 138.646C396.761 137.7 396.85 136.745 396.927 135.782L397.438 129.365H412.498V144.68H415.54V154.754H410.35V149.001H398.346V154.754H393.028ZM399.957 144.68H407.359V133.558H402.066L401.861 135.782C401.717 137.879 401.508 139.66 401.235 141.126C400.962 142.583 400.536 143.768 399.957 144.68ZM417.18 154.754V144.68H418.688C419.123 144.407 419.473 143.973 419.737 143.376C420.01 142.779 420.231 142.076 420.402 141.267C420.581 140.457 420.717 139.583 420.811 138.646C420.913 137.7 421.002 136.745 421.079 135.782L421.59 129.365H436.65V144.68H439.693V154.754H434.502V149.001H422.498V154.754H417.18ZM424.109 144.68H431.511V133.558H426.218L426.014 135.782C425.869 137.879 425.66 139.66 425.387 141.126C425.115 142.583 424.688 143.768 424.109 144.68ZM451.815 149.385C449.795 149.385 448.057 148.975 446.599 148.157C445.15 147.331 444.034 146.163 443.25 144.654C442.466 143.137 442.074 141.343 442.074 139.272C442.074 137.252 442.466 135.48 443.25 133.954C444.034 132.429 445.138 131.24 446.561 130.387C447.993 129.535 449.672 129.109 451.598 129.109C452.893 129.109 454.099 129.318 455.216 129.735C456.341 130.144 457.321 130.762 458.156 131.589C459 132.416 459.656 133.456 460.125 134.708C460.594 135.953 460.828 137.41 460.828 139.081V140.576H444.247V137.201H455.702C455.702 136.417 455.531 135.723 455.19 135.117C454.849 134.512 454.376 134.039 453.771 133.698C453.175 133.349 452.48 133.174 451.687 133.174C450.861 133.174 450.128 133.366 449.489 133.75C448.858 134.125 448.364 134.632 448.006 135.271C447.648 135.902 447.464 136.605 447.456 137.38V140.589C447.456 141.561 447.635 142.4 447.993 143.108C448.359 143.815 448.875 144.36 449.54 144.744C450.204 145.127 450.993 145.319 451.905 145.319C452.51 145.319 453.064 145.234 453.567 145.063C454.07 144.893 454.5 144.637 454.858 144.296C455.216 143.956 455.489 143.538 455.676 143.044L460.713 143.376C460.457 144.586 459.933 145.643 459.141 146.546C458.356 147.441 457.342 148.14 456.098 148.643C454.862 149.137 453.435 149.385 451.815 149.385ZM464.382 156.365V129.365H469.751V132.663H469.994C470.233 132.135 470.578 131.598 471.03 131.052C471.49 130.498 472.087 130.038 472.82 129.671C473.561 129.296 474.481 129.109 475.581 129.109C477.013 129.109 478.334 129.484 479.544 130.234C480.754 130.975 481.722 132.096 482.446 133.596C483.17 135.088 483.533 136.958 483.533 139.208C483.533 141.399 483.179 143.248 482.472 144.757C481.773 146.257 480.818 147.394 479.608 148.17C478.406 148.937 477.06 149.321 475.568 149.321C474.511 149.321 473.612 149.146 472.871 148.796C472.138 148.447 471.537 148.008 471.068 147.48C470.599 146.943 470.241 146.402 469.994 145.856H469.828V156.365H464.382ZM469.713 139.183C469.713 140.35 469.875 141.369 470.199 142.238C470.523 143.108 470.991 143.785 471.605 144.271C472.219 144.748 472.964 144.987 473.842 144.987C474.729 144.987 475.479 144.744 476.092 144.258C476.706 143.764 477.17 143.082 477.486 142.213C477.81 141.335 477.972 140.325 477.972 139.183C477.972 138.049 477.814 137.052 477.499 136.191C477.183 135.331 476.719 134.657 476.105 134.171C475.491 133.686 474.737 133.443 473.842 133.443C472.956 133.443 472.206 133.677 471.592 134.146C470.987 134.615 470.523 135.279 470.199 136.14C469.875 137.001 469.713 138.015 469.713 139.183ZM485.182 149.001L492.047 138.787L485.22 129.365H491.433L496.534 137.048H497.378V129.365H502.824V137.048H503.642L508.743 129.365H514.956L508.142 138.787L514.994 149.001H508.641L503.591 141.331H502.824V149.001H497.378V141.331H496.611L491.535 149.001H485.182ZM518.066 149.001V129.365H523.512V136.984H525.046L530.389 129.365H536.782L529.84 139.106L536.858 149.001H530.389L525.544 142.034H523.512V149.001H518.066ZM547.3 149.385C545.28 149.385 543.541 148.975 542.084 148.157C540.635 147.331 539.518 146.163 538.734 144.654C537.95 143.137 537.558 141.343 537.558 139.272C537.558 137.252 537.95 135.48 538.734 133.954C539.518 132.429 540.622 131.24 542.045 130.387C543.477 129.535 545.156 129.109 547.082 129.109C548.378 129.109 549.584 129.318 550.7 129.735C551.825 130.144 552.805 130.762 553.641 131.589C554.484 132.416 555.141 133.456 555.609 134.708C556.078 135.953 556.312 137.41 556.312 139.081V140.576H539.731V137.201H551.186C551.186 136.417 551.016 135.723 550.675 135.117C550.334 134.512 549.861 134.039 549.256 133.698C548.659 133.349 547.964 133.174 547.172 133.174C546.345 133.174 545.612 133.366 544.973 133.75C544.342 134.125 543.848 134.632 543.49 135.271C543.132 135.902 542.949 136.605 542.94 137.38V140.589C542.94 141.561 543.119 142.4 543.477 143.108C543.844 143.815 544.359 144.36 545.024 144.744C545.689 145.127 546.477 145.319 547.389 145.319C547.994 145.319 548.548 145.234 549.051 145.063C549.554 144.893 549.984 144.637 550.342 144.296C550.7 143.956 550.973 143.538 551.16 143.044L556.197 143.376C555.942 144.586 555.418 145.643 554.625 146.546C553.841 147.441 552.827 148.14 551.582 148.643C550.347 149.137 548.919 149.385 547.3 149.385Z" fill="black"/>
<path d="M230.083 105V85.3639H247.252V105H242.049V89.6466H235.222V105H230.083ZM251.599 112.364V85.3639H256.968V88.6622H257.211C257.45 88.1338 257.795 87.5969 258.247 87.0514C258.707 86.4975 259.303 86.0372 260.036 85.6708C260.778 85.2958 261.698 85.1083 262.798 85.1083C264.23 85.1083 265.551 85.4833 266.761 86.2333C267.971 86.9747 268.938 88.0955 269.663 89.5955C270.387 91.0869 270.749 92.9577 270.749 95.2077C270.749 97.398 270.396 99.2475 269.688 100.756C268.989 102.256 268.035 103.393 266.825 104.169C265.623 104.936 264.276 105.32 262.785 105.32C261.728 105.32 260.829 105.145 260.087 104.795C259.355 104.446 258.754 104.007 258.285 103.479C257.816 102.942 257.458 102.401 257.211 101.855H257.045V112.364H251.599ZM256.93 95.1821C256.93 96.3497 257.092 97.3682 257.416 98.2375C257.739 99.1068 258.208 99.7844 258.822 100.27C259.435 100.747 260.181 100.986 261.059 100.986C261.945 100.986 262.695 100.743 263.309 100.257C263.923 99.7631 264.387 99.0813 264.703 98.2119C265.026 97.3341 265.188 96.3242 265.188 95.1821C265.188 94.0486 265.031 93.0514 264.715 92.1906C264.4 91.3298 263.935 90.6565 263.322 90.1708C262.708 89.685 261.954 89.4421 261.059 89.4421C260.173 89.4421 259.423 89.6764 258.809 90.1452C258.204 90.6139 257.739 91.2787 257.416 92.1395C257.092 93.0003 256.93 94.0145 256.93 95.1821ZM283.252 105.384C281.266 105.384 279.549 104.962 278.1 104.118C276.66 103.266 275.548 102.081 274.764 100.564C273.98 99.0387 273.587 97.2702 273.587 95.2588C273.587 93.2304 273.98 91.4577 274.764 89.9406C275.548 88.4151 276.66 87.2304 278.1 86.3867C279.549 85.5344 281.266 85.1083 283.252 85.1083C285.238 85.1083 286.951 85.5344 288.391 86.3867C289.84 87.2304 290.957 88.4151 291.741 89.9406C292.525 91.4577 292.917 93.2304 292.917 95.2588C292.917 97.2702 292.525 99.0387 291.741 100.564C290.957 102.081 289.84 103.266 288.391 104.118C286.951 104.962 285.238 105.384 283.252 105.384ZM283.278 101.165C284.181 101.165 284.935 100.909 285.541 100.398C286.146 99.8781 286.602 99.1708 286.908 98.2759C287.224 97.381 287.381 96.3625 287.381 95.2205C287.381 94.0784 287.224 93.06 286.908 92.1651C286.602 91.2702 286.146 90.5628 285.541 90.0429C284.935 89.523 284.181 89.2631 283.278 89.2631C282.366 89.2631 281.599 89.523 280.977 90.0429C280.363 90.5628 279.899 91.2702 279.583 92.1651C279.276 93.06 279.123 94.0784 279.123 95.2205C279.123 96.3625 279.276 97.381 279.583 98.2759C279.899 99.1708 280.363 99.8781 280.977 100.398C281.599 100.909 282.366 101.165 283.278 101.165ZM305.33 105.384C303.319 105.384 301.589 104.957 300.14 104.105C298.7 103.244 297.592 102.051 296.816 100.526C296.049 99.0003 295.666 97.2446 295.666 95.2588C295.666 93.2475 296.053 91.4833 296.829 89.9662C297.613 88.4406 298.725 87.2517 300.166 86.3994C301.606 85.5387 303.319 85.1083 305.305 85.1083C307.018 85.1083 308.518 85.4193 309.805 86.0415C311.092 86.6637 312.11 87.5372 312.86 88.6622C313.61 89.7872 314.024 91.1083 314.1 92.6253H308.961C308.816 91.6452 308.433 90.8568 307.81 90.2602C307.197 89.6551 306.391 89.3526 305.394 89.3526C304.551 89.3526 303.813 89.5827 303.183 90.0429C302.56 90.4946 302.075 91.1551 301.725 92.0244C301.376 92.8938 301.201 93.9463 301.201 95.1821C301.201 96.435 301.372 97.5003 301.712 98.3781C302.062 99.256 302.552 99.925 303.183 100.385C303.813 100.845 304.551 101.075 305.394 101.075C306.016 101.075 306.575 100.947 307.069 100.692C307.572 100.436 307.985 100.065 308.309 99.5798C308.641 99.0855 308.859 98.4932 308.961 97.8029H314.1C314.015 99.3029 313.606 100.624 312.873 101.766C312.149 102.899 311.147 103.786 309.869 104.425C308.59 105.064 307.078 105.384 305.33 105.384ZM316.248 89.6466V85.3639H334.043V89.6466H327.715V105H322.525V89.6466H316.248ZM345.514 105.384C343.528 105.384 341.811 104.962 340.362 104.118C338.922 103.266 337.809 102.081 337.025 100.564C336.241 99.0387 335.849 97.2702 335.849 95.2588C335.849 93.2304 336.241 91.4577 337.025 89.9406C337.809 88.4151 338.922 87.2304 340.362 86.3867C341.811 85.5344 343.528 85.1083 345.514 85.1083C347.5 85.1083 349.213 85.5344 350.653 86.3867C352.102 87.2304 353.218 88.4151 354.003 89.9406C354.787 91.4577 355.179 93.2304 355.179 95.2588C355.179 97.2702 354.787 99.0387 354.003 100.564C353.218 102.081 352.102 103.266 350.653 104.118C349.213 104.962 347.5 105.384 345.514 105.384ZM345.54 101.165C346.443 101.165 347.197 100.909 347.802 100.398C348.407 99.8781 348.863 99.1708 349.17 98.2759C349.486 97.381 349.643 96.3625 349.643 95.2205C349.643 94.0784 349.486 93.06 349.17 92.1651C348.863 91.2702 348.407 90.5628 347.802 90.0429C347.197 89.523 346.443 89.2631 345.54 89.2631C344.628 89.2631 343.861 89.523 343.238 90.0429C342.625 90.5628 342.16 91.2702 341.845 92.1651C341.538 93.06 341.385 94.0784 341.385 95.2205C341.385 96.3625 341.538 97.381 341.845 98.2759C342.16 99.1708 342.625 99.8781 343.238 100.398C343.861 100.909 344.628 101.165 345.54 101.165ZM363.923 97.8156L370.993 85.3639H376.362V105H371.172V92.5102L364.128 105H358.72V85.3639H363.923V97.8156ZM370.059 78.5117H373.856C373.848 80.0628 373.272 81.3114 372.13 82.2574C370.997 83.2034 369.463 83.6764 367.528 83.6764C365.585 83.6764 364.047 83.2034 362.913 82.2574C361.78 81.3114 361.213 80.0628 361.213 78.5117H364.984C364.976 79.0997 365.163 79.6281 365.547 80.0969C365.939 80.5656 366.599 80.8 367.528 80.8C368.432 80.8 369.079 80.5699 369.471 80.1097C369.863 79.6494 370.059 79.1168 370.059 78.5117Z" fill="#5C35F9"/>
<path d="M346.656 42H254.656C247.752 42 242.156 47.5964 242.156 54.5C242.156 61.4036 247.752 67 254.656 67H346.656C353.56 67 359.156 61.4036 359.156 54.5C359.156 47.5964 353.56 42 346.656 42Z" fill="#9378FF"/>
<path d="M253.026 58.9997V52.4542H258.366V58.9997H257.117V53.5537H254.266V58.9997H253.026ZM262.826 59.1318C262.213 59.1318 261.677 58.9912 261.22 58.7099C260.762 58.4287 260.407 58.0352 260.154 57.5295C259.902 57.0238 259.775 56.4329 259.775 55.7568C259.775 55.0778 259.902 54.4841 260.154 53.9756C260.407 53.467 260.762 53.0721 261.22 52.7909C261.677 52.5096 262.213 52.369 262.826 52.369C263.44 52.369 263.975 52.5096 264.433 52.7909C264.89 53.0721 265.245 53.467 265.498 53.9756C265.751 54.4841 265.877 55.0778 265.877 55.7568C265.877 56.4329 265.751 57.0238 265.498 57.5295C265.245 58.0352 264.89 58.4287 264.433 58.7099C263.975 58.9912 263.44 59.1318 262.826 59.1318ZM262.831 58.0622C263.228 58.0622 263.558 57.9571 263.819 57.7469C264.081 57.5366 264.274 57.2568 264.399 56.9074C264.527 56.5579 264.59 56.173 264.59 55.7525C264.59 55.3349 264.527 54.9514 264.399 54.602C264.274 54.2497 264.081 53.967 263.819 53.754C263.558 53.5409 263.228 53.4344 262.831 53.4344C262.43 53.4344 262.098 53.5409 261.833 53.754C261.572 53.967 261.377 54.2497 261.25 54.602C261.125 54.9514 261.062 55.3349 261.062 55.7525C261.062 56.173 261.125 56.5579 261.25 56.9074C261.377 57.2568 261.572 57.5366 261.833 57.7469C262.098 57.9571 262.43 58.0622 262.831 58.0622ZM266.66 60.8875V57.896H267.193C267.329 57.771 267.445 57.6219 267.538 57.4486C267.635 57.2753 267.716 57.0693 267.781 56.8307C267.849 56.592 267.906 56.3136 267.952 55.9954C267.997 55.6744 268.037 55.3079 268.071 54.896L268.275 52.4542H272.724V57.896H273.73V60.8875H272.486V58.9997H267.922V60.8875H266.66ZM268.557 57.896H271.48V53.5452H269.418L269.281 54.896C269.216 55.5835 269.133 56.1801 269.034 56.6858C268.935 57.1886 268.775 57.592 268.557 57.896ZM274.336 60.8875V57.896H274.869C275.005 57.771 275.12 57.6219 275.214 57.4486C275.311 57.2753 275.392 57.0693 275.457 56.8307C275.525 56.592 275.582 56.3136 275.627 55.9954C275.673 55.6744 275.713 55.3079 275.747 54.896L275.951 52.4542H280.4V57.896H281.406V60.8875H280.162V58.9997H275.598V60.8875H274.336ZM276.233 57.896H279.156V53.5452H277.093L276.957 54.896C276.892 55.5835 276.809 56.1801 276.71 56.6858C276.61 57.1886 276.451 57.592 276.233 57.896ZM285.472 59.1318C284.827 59.1318 284.272 58.994 283.806 58.7185C283.343 58.44 282.985 58.0494 282.732 57.5466C282.482 57.0409 282.357 56.4486 282.357 55.7696C282.357 55.0991 282.482 54.5082 282.732 53.9969C282.985 53.4855 283.337 53.0863 283.789 52.7994C284.244 52.5125 284.775 52.369 285.383 52.369C285.752 52.369 286.11 52.4301 286.457 52.5523C286.803 52.6744 287.114 52.8662 287.39 53.1275C287.665 53.3889 287.883 53.7284 288.042 54.146C288.201 54.5608 288.28 55.065 288.28 55.6588V56.1105H283.077V55.1559H287.032C287.032 54.8207 286.964 54.5238 286.827 54.2653C286.691 54.004 286.499 53.798 286.252 53.6474C286.008 53.4969 285.721 53.4216 285.391 53.4216C285.033 53.4216 284.721 53.5096 284.454 53.6858C284.19 53.8591 283.985 54.0863 283.84 54.3676C283.698 54.646 283.627 54.9486 283.627 55.2753V56.021C283.627 56.4585 283.704 56.8307 283.857 57.1375C284.013 57.4443 284.231 57.6787 284.509 57.8406C284.788 57.9997 285.113 58.0792 285.485 58.0792C285.726 58.0792 285.947 58.0452 286.146 57.977C286.344 57.9059 286.516 57.8008 286.661 57.6616C286.806 57.5224 286.917 57.3506 286.994 57.146L288.2 57.3633C288.103 57.7184 287.93 58.0295 287.68 58.2966C287.432 58.5608 287.121 58.7667 286.746 58.9145C286.374 59.0594 285.95 59.1318 285.472 59.1318ZM289.694 61.4542V52.4542H290.938V53.5153H291.045C291.119 53.379 291.225 53.2213 291.365 53.0423C291.504 52.8633 291.697 52.7071 291.944 52.5736C292.191 52.4372 292.518 52.369 292.924 52.369C293.453 52.369 293.924 52.5025 294.339 52.7696C294.754 53.0366 295.079 53.4216 295.315 53.9244C295.554 54.4273 295.673 55.0324 295.673 55.7398C295.673 56.4471 295.555 57.0537 295.319 57.5594C295.083 58.0622 294.76 58.45 294.348 58.7227C293.936 58.9926 293.465 59.1275 292.937 59.1275C292.539 59.1275 292.214 59.0608 291.961 58.9273C291.711 58.7937 291.515 58.6375 291.373 58.4585C291.231 58.2795 291.122 58.1204 291.045 57.9812H290.968V61.4542H289.694ZM290.943 55.727C290.943 56.1872 291.01 56.5906 291.143 56.9372C291.277 57.2838 291.47 57.5551 291.723 57.7511C291.975 57.9443 292.285 58.0409 292.652 58.0409C293.032 58.0409 293.35 57.94 293.606 57.7383C293.862 57.5338 294.055 57.2568 294.186 56.9074C294.319 56.5579 294.386 56.1645 294.386 55.727C294.386 55.2952 294.321 54.9074 294.19 54.5636C294.062 54.2199 293.869 53.9486 293.61 53.7497C293.355 53.5508 293.035 53.4514 292.652 53.4514C292.282 53.4514 291.97 53.5466 291.714 53.7369C291.461 53.9273 291.269 54.1929 291.139 54.5338C291.008 54.8747 290.943 55.2724 290.943 55.727ZM296.425 58.9997L298.961 55.6503L296.455 52.4542H297.938L299.962 55.173H300.418V52.4542H301.692V55.173H302.135L304.159 52.4542H305.642L303.149 55.6503L305.672 58.9997H304.159L302.118 56.2724H301.692V58.9997H300.418V56.2724H299.992L297.938 58.9997H296.425ZM306.968 58.9997V52.4542H308.242V55.1986H308.855L311.016 52.4542H312.593L310.057 55.6375L312.622 58.9997H311.041L309.068 56.3832H308.242V58.9997H306.968ZM315.517 59.1446C315.102 59.1446 314.727 59.0679 314.392 58.9145C314.057 58.7582 313.791 58.5324 313.595 58.2369C313.402 57.9415 313.305 57.5792 313.305 57.1503C313.305 56.7809 313.376 56.477 313.518 56.2383C313.66 55.9997 313.852 55.8108 314.094 55.6716C314.335 55.5324 314.605 55.4273 314.903 55.3562C315.202 55.2852 315.506 55.2312 315.815 55.1943C316.207 55.1488 316.525 55.1119 316.77 55.0835C317.014 55.0523 317.192 55.0025 317.302 54.9344C317.413 54.8662 317.469 54.7554 317.469 54.602V54.5721C317.469 54.2 317.364 53.9116 317.153 53.7071C316.946 53.5025 316.636 53.4003 316.224 53.4003C315.795 53.4003 315.457 53.4954 315.21 53.6858C314.966 53.8733 314.797 54.0821 314.703 54.3122L313.506 54.0395C313.648 53.6417 313.855 53.3207 314.128 53.0764C314.403 52.8292 314.72 52.6503 315.078 52.5395C315.436 52.4258 315.812 52.369 316.207 52.369C316.469 52.369 316.746 52.4003 317.038 52.4628C317.334 52.5224 317.609 52.6332 317.865 52.7952C318.124 52.9571 318.335 53.1886 318.5 53.4898C318.665 53.7881 318.747 54.1758 318.747 54.6531V58.9997H317.503V58.1048H317.452C317.369 58.2696 317.246 58.4315 317.081 58.5906C316.916 58.7497 316.704 58.8818 316.446 58.9869C316.187 59.092 315.878 59.1446 315.517 59.1446ZM315.794 58.1219C316.146 58.1219 316.447 58.0523 316.697 57.9131C316.95 57.7738 317.142 57.592 317.273 57.3676C317.406 57.1403 317.473 56.8974 317.473 56.6389V55.7952C317.427 55.8406 317.339 55.8832 317.209 55.923C317.081 55.9599 316.935 55.9926 316.77 56.021C316.605 56.0466 316.445 56.0707 316.288 56.0935C316.132 56.1133 316.001 56.1304 315.896 56.1446C315.649 56.1758 315.423 56.2284 315.219 56.3023C315.017 56.3761 314.855 56.4827 314.733 56.6219C314.614 56.7582 314.554 56.94 314.554 57.1673C314.554 57.4827 314.67 57.7213 314.903 57.8832C315.136 58.0423 315.433 58.1219 315.794 58.1219ZM323.603 58.9997V58.0452L326.556 54.9855C326.871 54.6531 327.131 54.3619 327.336 54.1119C327.543 53.8591 327.698 53.619 327.8 53.3917C327.903 53.1645 327.954 52.923 327.954 52.6673C327.954 52.3775 327.886 52.1275 327.749 51.9173C327.613 51.7042 327.427 51.5409 327.191 51.4273C326.955 51.3108 326.69 51.2525 326.394 51.2525C326.082 51.2525 325.809 51.3165 325.576 51.4443C325.343 51.5721 325.164 51.7525 325.039 51.9855C324.914 52.2184 324.851 52.4912 324.851 52.8037H323.594C323.594 52.2724 323.717 51.8079 323.961 51.4102C324.205 51.0125 324.54 50.7042 324.967 50.4855C325.393 50.2639 325.877 50.1531 326.42 50.1531C326.968 50.1531 327.451 50.2625 327.869 50.4812C328.289 50.6971 328.617 50.9926 328.853 51.3676C329.089 51.7398 329.207 52.1602 329.207 52.629C329.207 52.9528 329.146 53.2696 329.023 53.5792C328.904 53.8889 328.695 54.2341 328.397 54.6148C328.099 54.9926 327.684 55.4514 327.153 55.9912L325.418 57.8065V57.8704H329.347V58.9997H323.603ZM330.592 57.2952V56.2298L334.363 50.2724H335.202V51.8406H334.67L331.972 56.1105V56.1787H337.141V57.2952H330.592ZM334.729 58.9997V56.9713L334.738 56.4855V50.2724H335.986V58.9997H334.729ZM341.967 49.8633L339.155 60.3122H338.017L340.829 49.8633H341.967ZM343.327 58.9997L347.136 51.4656V51.4017H342.73V50.2724H348.5V51.44L344.703 58.9997H343.327Z" fill="white"/>
</svg>
