<svg width="800" height="400" viewBox="0 0 800 400" fill="none" xmlns="http://www.w3.org/2000/svg">
<path d="M357.5 240.584L329.75 243.584M329.75 243.584L302 246.584L298 223.084C346.8 216.684 375 225.751 383 231.084C383.5 232.417 384.9 232.384 386.5 221.584C388.1 210.784 398.5 207.417 403.5 207.084L419.5 219.584L403.5 235.084L380.5 272.584L336 279.084L329.75 243.584Z" stroke="#5C35F9" stroke-width="8"/>
<path d="M293 171.084C295.5 188.584 307.9 223.884 337.5 225.084C374.5 226.584 394 198.584 396.5 188.084C399 177.584 401.5 160.584 391.5 125.584" stroke="#5C35F9" stroke-width="8"/>
<path d="M291 172.084C277 171.684 274.5 155.584 275 147.584L319.5 139.584C319.5 140.584 321.539 145.113 319.5 154.084C317 165.084 308.5 172.584 291 172.084Z" fill="#5C35F9" stroke="#5C35F9" stroke-width="8"/>
<path d="M350.558 162.584C336.558 162.184 334.058 146.084 334.558 138.084L379.058 130.084C379.058 131.084 379.939 135.426 379.058 144.584C378 155.584 368.058 163.084 350.558 162.584Z" fill="#5C35F9" stroke="#5C35F9" stroke-width="8"/>
<path d="M266.5 148.584L262.5 128.584L401.5 97.084L409 121.584L266.5 148.584Z" stroke="#5C35F9" stroke-width="8"/>
<path d="M278.5 126.084C274.833 110.251 272.5 76.0838 292.5 66.0838C312.5 56.0838 344.167 54.5838 357.5 55.0838C369.5 59.4172 392.8 73.584 390 95.584" stroke="#5C35F9" stroke-width="8"/>
<path d="M300.5 184.084C315.3 174.884 326.667 176.584 330.5 178.584C333.5 184.084 332 190.084 327.5 194.084C323 198.084 307.5 199.084 292 201.084C279.6 202.684 271.167 192.751 268.5 187.584C269.5 188.417 273.3 190.384 280.5 191.584C289.5 193.084 282 195.584 300.5 184.084Z" fill="#5C35F9" stroke="#5C35F9"/>
<path d="M367.061 179.162C352.261 169.962 340.894 171.662 337.061 173.662C334.061 179.162 335.561 185.162 340.061 189.162C344.561 193.162 360.061 194.162 375.561 196.162C387.961 197.762 400.333 186.251 403 181.084C402 181.917 394.36 186.662 387.061 186.662C379 186.662 385.561 190.662 367.061 179.162Z" fill="#5C35F9" stroke="#5C35F9"/>
<path d="M405 236.084C423.5 240.751 460.4 258.984 460 294.584" stroke="#5C35F9" stroke-width="8"/>
<path d="M381 274.084C391 278.584 411.7 292.284 414.5 311.084M309.5 247.084L273.5 280.084L282 361.584M273.5 368.084L234 289.084L174.5 303.364M198.5 368.084L171.5 304.084L174.5 303.364M227 286.084C225.167 268.751 216.2 229.284 195 210.084C173.8 190.884 165.5 183.751 164 182.584L102 202.084C113.167 212.251 137.2 235.484 144 247.084C150.8 258.684 154.5 263.584 155.5 264.584M134.5 239.084C131.333 237.917 122.7 236.284 113.5 239.084C104.3 241.884 98.6667 243.251 97 243.584L102 260.584C115.13 257.417 144.613 256.884 157.5 280.084C170.387 303.284 174.203 305.271 174.5 303.364" stroke="#5C35F9" stroke-width="8"/>
<path d="M121 197.584L152 229.584" stroke="#5C35F9" stroke-width="8"/>
<path d="M146.5 189.084L180.5 226.584M119.5 193.084C117.333 184.251 108.7 163.684 91.5 152.084C74.3 140.484 64.6667 136.584 62 136.084L160.5 104.084C173.833 110.084 201 129.784 203 160.584C205.5 199.084 220 214.584 240 220.584C256 225.384 264.333 228.917 266.5 230.084L220 240.584" stroke="#5C35F9" stroke-width="8"/>
<path d="M414 214H487L511.5 358.5" stroke="#5C35F9" stroke-width="8"/>
<path d="M118.5 370.5H607" stroke="#5C35F9" stroke-width="8"/>
<path d="M557.196 67.7645H551.195C551.085 66.9882 550.861 66.2986 550.523 65.6957C550.186 65.0838 549.752 64.5632 549.222 64.1339C548.692 63.7046 548.08 63.3758 547.386 63.1474C546.701 62.9191 545.957 62.8049 545.153 62.8049C543.701 62.8049 542.436 63.1657 541.358 63.8873C540.28 64.5997 539.444 65.6409 538.851 67.011C538.257 68.3719 537.96 70.0251 537.96 71.9706C537.96 73.9709 538.257 75.6515 538.851 77.0124C539.453 78.3733 540.294 79.4009 541.371 80.0951C542.449 80.7892 543.696 81.1363 545.112 81.1363C545.906 81.1363 546.642 81.0313 547.318 80.8212C548.003 80.6111 548.61 80.3051 549.14 79.9032C549.669 79.4922 550.108 78.9944 550.455 78.4099C550.811 77.8253 551.058 77.1586 551.195 76.4096L557.196 76.437C557.04 77.7249 556.652 78.967 556.031 80.1636C555.419 81.3509 554.593 82.415 553.551 83.3558C552.519 84.2874 551.286 85.0273 549.852 85.5753C548.427 86.1142 546.815 86.3836 545.016 86.3836C542.513 86.3836 540.275 85.8173 538.303 84.6847C536.339 83.5522 534.786 81.9127 533.644 79.7662C532.512 77.6198 531.945 75.0213 531.945 71.9706C531.945 68.9108 532.521 66.3077 533.672 64.1613C534.823 62.0149 536.384 60.3799 538.357 59.2565C540.33 58.1239 542.55 57.5576 545.016 57.5576C546.642 57.5576 548.149 57.7859 549.537 58.2426C550.934 58.6993 552.172 59.3661 553.25 60.2429C554.328 61.1106 555.204 62.1747 555.88 63.4351C556.565 64.6956 557.004 66.1387 557.196 67.7645ZM561.34 86V64.9559H567.177V73.1215H568.821L574.547 64.9559H581.398L573.958 75.3958L581.48 86H574.547L569.355 78.5332H567.177V86H561.34ZM592.588 86.411C590.46 86.411 588.619 85.9589 587.066 85.0547C585.523 84.1413 584.331 82.8717 583.49 81.2459C582.65 79.611 582.23 77.7157 582.23 75.5602C582.23 73.3863 582.65 71.4865 583.49 69.8607C584.331 68.2258 585.523 66.9562 587.066 66.052C588.619 65.1386 590.46 64.6819 592.588 64.6819C594.716 64.6819 596.552 65.1386 598.095 66.052C599.648 66.9562 600.845 68.2258 601.685 69.8607C602.525 71.4865 602.945 73.3863 602.945 75.5602C602.945 77.7157 602.525 79.611 601.685 81.2459C600.845 82.8717 599.648 84.1413 598.095 85.0547C596.552 85.9589 594.716 86.411 592.588 86.411ZM592.615 81.8898C593.583 81.8898 594.392 81.6158 595.04 81.0678C595.689 80.5106 596.177 79.7525 596.506 78.7935C596.844 77.8345 597.013 76.743 597.013 75.5191C597.013 74.2951 596.844 73.2037 596.506 72.2446C596.177 71.2856 595.689 70.5275 595.04 69.9703C594.392 69.4132 593.583 69.1346 592.615 69.1346C591.638 69.1346 590.816 69.4132 590.149 69.9703C589.491 70.5275 588.994 71.2856 588.656 72.2446C588.327 73.2037 588.162 74.2951 588.162 75.5191C588.162 76.743 588.327 77.8345 588.656 78.7935C588.994 79.7525 589.491 80.5106 590.149 81.0678C590.816 81.6158 591.638 81.8898 592.615 81.8898ZM605.507 86L605.48 81.3692H606.179C606.672 81.3692 607.097 81.2505 607.453 81.013C607.818 80.7664 608.12 80.3691 608.357 79.821C608.595 79.273 608.782 78.5469 608.919 77.6426C609.056 76.7293 609.147 75.6058 609.193 74.2723L609.535 64.9559H625.538V86H619.975V69.5456H614.783L614.454 75.9712C614.372 77.734 614.157 79.2502 613.81 80.5198C613.472 81.7894 613.002 82.8306 612.399 83.6435C611.796 84.4473 611.07 85.041 610.22 85.4246C609.371 85.8082 608.384 86 607.261 86H605.507ZM633.72 71.4226H640.009C642.795 71.4226 644.968 72.0893 646.53 73.4229C648.092 74.7473 648.873 76.5192 648.873 78.7387C648.873 80.1818 648.521 81.4514 647.818 82.5475C647.115 83.6344 646.101 84.4838 644.777 85.0958C643.452 85.6986 641.863 86 640.009 86H630.062V64.9559H635.638V81.4103H640.009C640.986 81.4103 641.79 81.1637 642.42 80.6705C643.05 80.1773 643.37 79.547 643.379 78.7798C643.37 77.9669 643.05 77.3047 642.42 76.7932C641.79 76.2726 640.986 76.0123 640.009 76.0123H633.72V71.4226ZM652.743 86V64.9559H658.58V73.1215H660.224L665.951 64.9559H672.801L665.362 75.3958L672.883 86H665.951L660.758 78.5332H658.58V86H652.743ZM683.991 86.411C681.863 86.411 680.022 85.9589 678.47 85.0547C676.926 84.1413 675.734 82.8717 674.894 81.2459C674.054 79.611 673.633 77.7157 673.633 75.5602C673.633 73.3863 674.054 71.4865 674.894 69.8607C675.734 68.2258 676.926 66.9562 678.47 66.052C680.022 65.1386 681.863 64.6819 683.991 64.6819C686.119 64.6819 687.955 65.1386 689.499 66.052C691.051 66.9562 692.248 68.2258 693.088 69.8607C693.929 71.4865 694.349 73.3863 694.349 75.5602C694.349 77.7157 693.929 79.611 693.088 81.2459C692.248 82.8717 691.051 84.1413 689.499 85.0547C687.955 85.9589 686.119 86.411 683.991 86.411ZM684.018 81.8898C684.987 81.8898 685.795 81.6158 686.443 81.0678C687.092 80.5106 687.581 79.7525 687.909 78.7935C688.247 77.8345 688.416 76.743 688.416 75.5191C688.416 74.2951 688.247 73.2037 687.909 72.2446C687.581 71.2856 687.092 70.5275 686.443 69.9703C685.795 69.4132 684.987 69.1346 684.018 69.1346C683.041 69.1346 682.219 69.4132 681.552 69.9703C680.895 70.5275 680.397 71.2856 680.059 72.2446C679.73 73.2037 679.566 74.2951 679.566 75.5191C679.566 76.743 679.73 77.8345 680.059 78.7935C680.397 79.7525 680.895 80.5106 681.552 81.0678C682.219 81.6158 683.041 81.8898 684.018 81.8898ZM546.975 128.149V132.739H535.987V128.149H546.975ZM537.905 119.956V141H532.329V119.956H537.905ZM550.633 119.956V141H545.098V119.956H550.633ZM558.011 148.892C557.271 148.892 556.577 148.832 555.928 148.713C555.289 148.604 554.759 148.462 554.339 148.289L555.654 143.932C556.339 144.142 556.956 144.256 557.504 144.274C558.061 144.293 558.541 144.165 558.942 143.891C559.353 143.617 559.687 143.151 559.943 142.493L560.285 141.603L552.736 119.956H558.874L563.231 135.41H563.45L567.848 119.956H574.027L565.848 143.274C565.455 144.407 564.92 145.393 564.245 146.234C563.578 147.083 562.733 147.736 561.71 148.193C560.687 148.659 559.454 148.892 558.011 148.892ZM575.643 141L583.001 130.053L575.685 119.956H582.343L587.81 128.19H588.714V119.956H594.55V128.19H595.427L600.894 119.956H607.552L600.25 130.053L607.593 141H600.784L595.372 132.78H594.55V141H588.714V132.78H587.892L582.453 141H575.643ZM625.531 128.149V132.739H614.543V128.149H625.531ZM616.461 119.956V141H610.885V119.956H616.461ZM629.189 119.956V141H623.654V119.956H629.189ZM643.225 141.411C641.097 141.411 639.256 140.959 637.704 140.055C636.16 139.141 634.968 137.872 634.128 136.246C633.288 134.611 632.867 132.716 632.867 130.56C632.867 128.386 633.288 126.487 634.128 124.861C634.968 123.226 636.16 121.956 637.704 121.052C639.256 120.139 641.097 119.682 643.225 119.682C645.353 119.682 647.189 120.139 648.733 121.052C650.285 121.956 651.482 123.226 652.322 124.861C653.162 126.487 653.583 128.386 653.583 130.56C653.583 132.716 653.162 134.611 652.322 136.246C651.482 137.872 650.285 139.141 648.733 140.055C647.189 140.959 645.353 141.411 643.225 141.411ZM643.252 136.89C644.221 136.89 645.029 136.616 645.677 136.068C646.326 135.511 646.815 134.753 647.143 133.793C647.481 132.834 647.65 131.743 647.65 130.519C647.65 129.295 647.481 128.204 647.143 127.245C646.815 126.286 646.326 125.527 645.677 124.97C645.029 124.413 644.221 124.135 643.252 124.135C642.275 124.135 641.453 124.413 640.786 124.97C640.129 125.527 639.631 126.286 639.293 127.245C638.964 128.204 638.8 129.295 638.8 130.519C638.8 131.743 638.964 132.834 639.293 133.793C639.631 134.753 640.129 135.511 640.786 136.068C641.453 136.616 642.275 136.89 643.252 136.89ZM531.096 196L531.069 191.369H531.767C532.261 191.369 532.685 191.25 533.042 191.013C533.407 190.766 533.708 190.369 533.946 189.821C534.183 189.273 534.37 188.547 534.507 187.643C534.644 186.729 534.736 185.606 534.782 184.272L535.124 174.956H551.126V196H545.564V179.546H540.371L540.043 185.971C539.96 187.734 539.746 189.25 539.399 190.52C539.061 191.789 538.59 192.831 537.987 193.644C537.385 194.447 536.658 195.041 535.809 195.425C534.96 195.808 533.973 196 532.85 196H531.096ZM561.227 188.3L568.803 174.956H574.558V196H568.995V182.615L561.446 196H555.651V174.956H561.227V188.3ZM597.636 174.956V191.972H600.993V202.768H595.321V196H579.236V174.956H584.813V191.41H592.129V174.956H597.636ZM613.957 196.411C611.792 196.411 609.929 195.973 608.367 195.096C606.815 194.21 605.618 192.958 604.778 191.342C603.937 189.716 603.517 187.793 603.517 185.574C603.517 183.409 603.937 181.509 604.778 179.874C605.618 178.239 606.801 176.965 608.326 176.052C609.861 175.139 611.66 174.682 613.724 174.682C615.113 174.682 616.405 174.906 617.601 175.353C618.807 175.792 619.858 176.454 620.753 177.34C621.657 178.226 622.36 179.34 622.863 180.683C623.365 182.016 623.616 183.578 623.616 185.368V186.971H605.846V183.354H618.122C618.122 182.514 617.939 181.77 617.574 181.121C617.209 180.473 616.702 179.966 616.053 179.6C615.414 179.226 614.67 179.039 613.82 179.039C612.934 179.039 612.149 179.244 611.464 179.655C610.788 180.057 610.258 180.601 609.874 181.286C609.491 181.961 609.294 182.715 609.285 183.546V186.985C609.285 188.026 609.477 188.926 609.861 189.684C610.253 190.442 610.806 191.027 611.518 191.438C612.231 191.849 613.076 192.054 614.053 192.054C614.702 192.054 615.295 191.963 615.834 191.78C616.373 191.598 616.834 191.324 617.218 190.958C617.601 190.593 617.894 190.145 618.095 189.616L623.493 189.972C623.219 191.269 622.657 192.401 621.808 193.369C620.967 194.329 619.88 195.077 618.547 195.616C617.222 196.146 615.693 196.411 613.957 196.411ZM642.071 183.149V187.739H631.083V183.149H642.071ZM633.001 174.956V196H627.425V174.956H633.001ZM645.729 174.956V196H640.194V174.956H645.729ZM649.174 190.04H654.833C654.86 190.734 655.171 191.282 655.764 191.684C656.358 192.086 657.125 192.287 658.066 192.287C659.016 192.287 659.815 192.068 660.464 191.63C661.112 191.182 661.436 190.543 661.436 189.711C661.436 189.2 661.309 188.757 661.053 188.382C660.797 187.999 660.441 187.697 659.984 187.478C659.528 187.259 658.998 187.149 658.395 187.149H655.367V183.327H658.395C659.299 183.327 659.993 183.117 660.477 182.697C660.971 182.277 661.217 181.751 661.217 181.121C661.217 180.409 660.962 179.838 660.45 179.409C659.948 178.97 659.267 178.751 658.409 178.751C657.541 178.751 656.819 178.947 656.244 179.34C655.678 179.724 655.385 180.226 655.367 180.847H649.736C649.754 179.587 650.134 178.495 650.873 177.573C651.622 176.65 652.627 175.938 653.887 175.435C655.157 174.933 656.577 174.682 658.148 174.682C659.865 174.682 661.345 174.924 662.587 175.408C663.839 175.883 664.798 176.563 665.464 177.449C666.14 178.335 666.478 179.39 666.478 180.614C666.478 181.729 666.113 182.66 665.382 183.409C664.652 184.158 663.629 184.692 662.313 185.012V185.231C663.181 185.286 663.967 185.519 664.67 185.93C665.373 186.341 665.935 186.907 666.355 187.629C666.775 188.341 666.985 189.186 666.985 190.164C666.985 191.47 666.602 192.589 665.834 193.52C665.076 194.452 664.026 195.169 662.683 195.671C661.35 196.164 659.82 196.411 658.094 196.411C656.413 196.411 654.906 196.169 653.572 195.685C652.248 195.192 651.193 194.47 650.408 193.52C649.631 192.57 649.22 191.41 649.174 190.04ZM676.141 188.3L683.717 174.956H689.471V196H683.909V182.615L676.36 196H670.564V174.956H676.141V188.3ZM699.726 188.3L707.303 174.956H713.057V196H707.494V182.615L699.945 196H694.15V174.956H699.726V188.3ZM706.302 167.612H710.372C710.362 169.275 709.746 170.613 708.522 171.627C707.307 172.641 705.663 173.147 703.59 173.147C701.507 173.147 699.859 172.641 698.644 171.627C697.429 170.613 696.822 169.275 696.822 167.612H700.863C700.854 168.243 701.055 168.809 701.466 169.311C701.886 169.814 702.594 170.065 703.59 170.065C704.558 170.065 705.252 169.818 705.672 169.325C706.092 168.832 706.302 168.261 706.302 167.612ZM722.75 187.588V187.122C722.759 185.524 722.901 184.249 723.175 183.3C723.458 182.35 723.869 181.582 724.408 180.998C724.947 180.413 725.595 179.884 726.353 179.409C726.92 179.043 727.426 178.664 727.874 178.271C728.322 177.879 728.678 177.445 728.943 176.97C729.208 176.486 729.34 175.947 729.34 175.353C729.34 174.723 729.189 174.17 728.888 173.695C728.586 173.221 728.18 172.855 727.669 172.599C727.166 172.344 726.609 172.216 725.997 172.216C725.403 172.216 724.842 172.348 724.312 172.613C723.782 172.869 723.348 173.252 723.01 173.764C722.672 174.266 722.49 174.892 722.462 175.641H716.872C716.918 173.814 717.357 172.307 718.188 171.12C719.019 169.923 720.119 169.033 721.49 168.448C722.86 167.854 724.371 167.558 726.024 167.558C727.842 167.558 729.45 167.859 730.847 168.462C732.245 169.056 733.341 169.919 734.135 171.051C734.93 172.184 735.327 173.549 735.327 175.148C735.327 176.216 735.149 177.166 734.793 177.997C734.446 178.819 733.957 179.55 733.327 180.19C732.697 180.82 731.952 181.391 731.094 181.902C730.372 182.331 729.778 182.779 729.313 183.245C728.856 183.711 728.513 184.249 728.285 184.861C728.066 185.473 727.952 186.227 727.943 187.122V187.588H722.75ZM725.463 196.356C724.549 196.356 723.768 196.037 723.12 195.397C722.481 194.749 722.165 193.972 722.175 193.068C722.165 192.173 722.481 191.406 723.12 190.766C723.768 190.127 724.549 189.807 725.463 189.807C726.33 189.807 727.093 190.127 727.751 190.766C728.408 191.406 728.742 192.173 728.751 193.068C728.742 193.671 728.582 194.223 728.271 194.726C727.97 195.219 727.573 195.616 727.079 195.918C726.586 196.21 726.047 196.356 725.463 196.356Z" fill="#9479FF"/>
</svg>
