<?xml version="1.0" encoding="UTF-8"?> <svg xmlns="http://www.w3.org/2000/svg" width="1024" height="1024" viewBox="0 0 1024 1024" fill="none"><path d="M52.0319 540.432L52.0173 539.712C52.2161 491.998 49.4837 433.938 55.0145 387.5C74.8761 220.738 215.146 88.4248 379.96 66.2956C401.752 63.3696 423.186 63.013 445.122 62.7462C485.838 64.1224 528.528 62.8996 569.396 62.9024C587.16 62.9038 604.97 62.5148 622.704 63.7246C804.384 76.1206 956.148 222.496 971.152 405.362C974.664 448.166 972.018 496.872 972.924 540.494C961.25 540.512 949.57 540.594 937.896 540.514C893.846 540.206 898.796 551.74 895.232 586.288C887.232 663.804 825.508 727.69 748.348 737.268C649.522 749.536 567.914 680.484 555.838 583.538C551.868 555.94 535.204 556.972 511.818 556.88C504.646 556.85 496.984 556.356 489.886 557.316L489 557.446C466.978 560.558 468.73 587.67 465.676 603.706C459.438 636.456 440.154 669.638 416.29 692.778C348.794 758.226 236.324 752.596 173.519 684.25C141.002 648.864 129.862 611.26 127.796 565.09C127.134 550.298 119.533 542.53 104.034 541.052C86.9769 539.426 69.1689 540.52 52.0319 540.432ZM417.394 130.716C402.128 131.59 387.192 132.669 372.124 135.444C241.628 159.471 133.392 270.924 120.013 404C117.914 424.876 118.789 445.682 118.447 466.61C125.948 467.618 133.46 467.372 141.008 467.378C258.318 467.48 375.63 467.414 492.94 467.386C530.414 467.376 568.032 468.066 605.492 467.262L905.276 467.504C904.37 445.454 905.992 423.282 903.65 401.294C888.39 258.084 768.082 143.868 625.332 131.592C610.752 130.338 596.32 130.407 581.704 130.397C528.138 130.359 471.28 128.459 417.954 130.692L417.394 130.716Z" fill="white"></path><path d="M155.584 795.918C154.427 799.084 154.169 801.892 154.505 805.25C158.064 840.78 192.158 862.566 225.704 862.552C266.528 862.538 304.774 832.496 332.896 805.224C361.344 777.634 386.292 745.524 428.326 741.204C462.174 738.776 491.726 752.648 512.19 780.154C538.466 746.974 576.952 730.706 618.75 746.534C656.472 760.82 681.008 799.304 711.812 823.834C738.794 845.318 774.034 866.556 810.016 862.214C845.658 857.914 868.526 832.774 869.746 796.746C892.24 810.738 888.1 846.316 879.226 867.096C865.174 900.004 832.668 921.838 800.466 934.516C735.628 960.04 640.436 960.674 575.452 932.482C547.81 920.182 526.794 900.378 511.304 874.564C493.58 914.592 453.066 935.24 412.334 944.77C337.33 962.322 218.404 956.492 164.681 896.3C139.713 868.326 123.237 824.61 155.584 795.918Z" fill="white"></path></svg> 